<?xml version="1.0" encoding="utf-8"?>
<!-- Generator: Adobe Illustrator 19.1.0, SVG Export Plug-In . SVG Version: 6.00 Build 0)  -->
<svg version="1.1" id="Layer_1" xmlns="http://www.w3.org/2000/svg" xmlns:xlink="http://www.w3.org/1999/xlink" x="0px" y="0px"
	 viewBox="0 0 600 600" style="enable-background:new 0 0 600 600;" xml:space="preserve">
<style type="text/css">
	.st0{fill:#546E7A;}
	.st1{fill:none;}
	.st2{fill:#37474F;}
	.st3{fill:#F37047;}
</style>
<path class="st0" d="M612.5,113.1c-17.7-5.7-29.1-13.5-61.7-4.3c-32.6,9.2-65.9-9.9-87.9-16.3c-22-6.4-43.3-23.4-71.6-6.4
	c-28.4,17-44,14.6-63.8,9.8c-19.9-4.8-24.8-11.2-46.8-4.8c-22,6.4-69.5,14.2-88.6,9.9s-3.5-56-29.1-74.5S46.6,28,50.2,59.2
	s39,31.9,41.1,31.9c2.1,0,83.7,24.1,46.8,58.1s-48.2,66.7-78.7,66.7s-63.8,83.7-13.5,93.6s96.4-17,119.8-18.4s108.1,18.4,150.5,11.3
	s101.2-28.4,116.1-46.1s58.2-54.6,103.6-22.7s69.5,45.4,76.6,34s23.4-52.5,39.7-48.9c16.3,3.5,7.8-90.1,7.8-90.1L612.5,113.1z"/>
<path class="st1" d="M501.5,221.1c-0.6,0-1.2-0.1-1.8-0.1l1,7.3L501.5,221.1z"/>
<path class="st2" d="M351.3,99.4c-2.8,0-5.5-0.1-8.2-0.5l4.1,37.4L351.3,99.4z"/>
<path class="st2" d="M399.4,82.1c-2.6,1.1-5.3,2.4-8.1,4c-0.7,0.4-1.3,0.8-2,1.2l5.6,68.8L399.4,82.1z"/>
<path class="st2" d="M510,108.4c-3.5-0.8-6.9-1.8-10.2-2.8l5.9,73.2L510,108.4z"/>
<path class="st2" d="M365.6,97.5c-1.7,0.4-3.4,0.8-5.1,1.1l1.3,26.5L365.6,97.5z"/>
<path class="st2" d="M384.9,89.7c-2.2,1.2-4.3,2.2-6.3,3.1l6.3,22.9V89.7z"/>
<path class="st2" d="M443.8,85.4c-1.7-0.7-3.3-1.3-5-1.9l2.8,20L443.8,85.4z"/>
<path class="st2" d="M484.9,100.4c-3.8-1.4-7.4-2.8-10.9-4.1l5.7,51.2L484.9,100.4z"/>
<path class="st2" d="M586.9,105.3c-3-0.5-6.2-0.7-9.7-0.7l5.5,68.4L586.9,105.3z"/>
<path class="st2" d="M560.1,106.5c-1.4,0.3-2.9,0.6-4.4,1l1.1,23.1L560.1,106.5z"/>
<path class="st2" d="M533.5,111.2c-2,0-3.9,0-5.8-0.1l5.8,21.3V111.2z"/>
<path class="st2" d="M455.3,89.9c-2.2-0.8-4.5-1.7-6.7-2.7l3.7,26.8L455.3,89.9z"/>
<path class="st2" d="M429.8,80.6c-6.1-1.6-12.4-2.3-19-1.5c0,0.3,10.5,74.4,10,91.7c-0.8,27.6-5.4,82.8-10,100.8l0,0
	c9.7-5.1,17.4-10.4,21.6-15.3c0.7-0.8,1.5-1.7,2.3-2.6c-0.7-18.6-1.9-48.7-3.4-83.3C429.2,122.6,428,95.4,429.8,80.6z"/>
<path class="st2" d="M501.5,221.1c2.8,0.1,5.7,0.5,8.6,1.1l-4.4-39.4L501.5,221.1z"/>
<path class="st2" d="M542.5,238.2c1.8,1.2,3.6,2.5,5.3,3.6l-3.1-38.6L542.5,238.2z"/>
<path class="st2" d="M391,280.8c3.2-1.3,6.4-2.7,9.4-4.1l-5.2-64.4L391,280.8z"/>
<path class="st2" d="M574.2,259.1c1.6,1,3.2,1.9,4.8,2.8l-1.4-27.6L574.2,259.1z"/>
<path class="st2" d="M554.5,246.5c0.3,0.2,0.6,0.4,1,0.6l-1-3.5V246.5z"/>
<path class="st2" d="M499.7,221.1l-1.7-12.5l-1.5,12.5C497.5,221.1,498.6,221.1,499.7,221.1z"/>
<path class="st2" d="M454.4,236.4c3.1-2.2,6.4-4.2,10-6.1l-4.6-41.9L454.4,236.4z"/>
<path class="st2" d="M352.1,294.2c3.5-1,7.1-2.1,10.6-3.2l-5.9-72.8L352.1,294.2z"/>
<path class="st2" d="M379.3,285.3c1.5-0.6,3-1.1,4.5-1.7l-1.1-23.1L379.3,285.3z"/>
<path class="st2" d="M484.1,222.7c2.1-0.5,4.2-0.9,6.4-1.1l-3.3-23.6L484.1,222.7z"/>
<path class="st2" d="M77.5,211.3c-3.4,1.8-7,3.2-10.9,3.9l6.1,74.6L77.5,211.3z"/>
<path class="st2" d="M103.2,187.4c-2.3,2.8-4.6,5.4-6.8,7.8l3.1,22.2L103.2,187.4z"/>
<path class="st2" d="M51.3,217.7c-2.9,1.3-5.7,3.2-8.4,5.6l3.9,35.2L51.3,217.7z"/>
<path class="st2" d="M136.2,151c-2.8,2.6-5.5,5.3-8,7.9l4.3,52.6L136.2,151z"/>
<path class="st2" d="M110.5,178.8c-1.7,2.1-3.4,4.1-5.1,6l1.1,22.8L110.5,178.8z"/>
<path class="st2" d="M88.4,203.3c-2.1,1.9-4.2,3.6-6.3,5.1l3,21.5L88.4,203.3z"/>
<path class="st2" d="M283.1,303.7c3.5,0.2,6.9,0.2,10.2,0.3l-5.1-46.2L283.1,303.7z"/>
<path class="st2" d="M236.8,299.2c2.9,0.4,5.9,0.7,8.8,1.1l-5-62.2L236.8,299.2z"/>
<path class="st2" d="M126.2,301.5c2.8-0.8,5.4-1.7,8-2.5l-4.5-55.4L126.2,301.5z"/>
<path class="st2" d="M269,302.8c2.1,0.2,4.2,0.3,6.3,0.5l-1.7-34.2L269,302.8z"/>
<path class="st2" d="M255.1,301.4c1.8,0.2,3.6,0.4,5.4,0.6l-5.4-19.8V301.4z"/>
<path class="st2" d="M190.8,292.9c2.2,0.3,4.4,0.6,6.8,0.9l-3.6-26.1L190.8,292.9z"/>
<path class="st2" d="M150.4,294.1c3.7-1,7.1-1.9,10.2-2.4l-5-45L150.4,294.1z"/>
<path class="st2" d="M96.3,309.1c1.6-0.3,3.2-0.6,4.8-0.9l-2.4-21.4L96.3,309.1z"/>
<path class="st2" d="M49,310c2.9,0.5,5.8,0.9,8.7,1.1l-5-61.7L49,310z"/>
<path class="st2" d="M75.9,311.5c1.2-0.1,2.4-0.1,3.6-0.2l-1-19.4L75.9,311.5z"/>
<path class="st2" d="M181.7,291.8c1,0.1,2.1,0.2,3.2,0.3l-1.7-12.2L181.7,291.8z"/>
<path class="st3" d="M243,171.2c4.8-8,26-15.9,44.3-15.1c29,1.3,56.5,31.9,50,49c-10.4,27.4-31.6,30.4-61.3,26.9
	C261.3,230.3,227,198.1,243,171.2z"/>
</svg>
