<?xml version="1.0" encoding="utf-8"?>
<!-- Generator: Adobe Illustrator 19.1.0, SVG Export Plug-In . SVG Version: 6.00 Build 0)  -->
<svg version="1.1" id="Layer_1" xmlns="http://www.w3.org/2000/svg" xmlns:xlink="http://www.w3.org/1999/xlink" x="0px" y="0px"
	 viewBox="0 0 600 600" style="enable-background:new 0 0 600 600;" xml:space="preserve">
<style type="text/css">
	.st0{fill:#263238;}
</style>
<g id="Qntvbk_1_">
	<g>
		<path class="st0" d="M387.6,154l-2.6,13.6l-7.4-5.2l0.5,7.5l-4.4-5.1v6.3l-3.3-1.5l-0.2,8.9l-6-6.1l-0.9,0.3l5,21.9l-0.8,0.6
			l-14.4-13.7l3.5,16.3l-14.5-10.3l7,24.5l-8.1-6.5l4,24.6l-1.6,0.5L328,214.3l2.1,12.2l-12.4-9.7l0.8,19.5l-10.8-12.6l0.6,16
			l-9-11.3l-1.3,11.5l-7.4-7.7l-1,10.2l-5.1-5.5l-0.8,8l-1.1,1.1l-14.2-2.9L244.5,262l-11.3,9.6l-6.7,10.5l-5.3,10.8l-4.2,12.3
			l8.9-6.3l23.6-7.7l32-3.1l8.4,1.7l20.2,6.9l2.7-5l14.4,9.2V292l1-0.5l7.3,10.4l1.4-0.5l0.2-10.4l1-0.4l6.5,9.2l0.7-10.6l1.4-0.8
			l5.6,8l8,3l7.1-1.7l-2.8-12.5l13.3,12.9l6.8-9.9l3.8,8.2l2.2-23.1l1.5-0.6l13.4,16.8l2.6-11.1l7.5,7.2l0.1-14.4l9,8.1l1.7-7.5
			l5.5,3.6l2.2-7.6l1.3-0.5l5.3,11.7l-9.2,31.2l-9.5,8.1l-16.6,7.4l-68.8,27.7l-29.2,15.9l-15.6,9.7l-46.8-1.9l-6.2-2.1l-3.4-0.3
			l-25.5-9.6l-17.6-6.9l-8.1-0.7l-19.5,6.7l1.3-17.6l-7.3,1.8l-12.4,13.5l-3.6,2.8l-2.3-4.4l-4.7-30l-17.3-13.7h-2l-27.4-6.3
			l-1.8-0.8l-8.8-10.3l-1.6-10.9l3.6-18.2l15.1-20.9l5-17.9l3.5-5.8l11.8-9.8l31.8-14.6l9-4.1l8.7-4.9l59.8-23.3l47.8-25.9
			l53.5-17.3l25.3,3.8l29.1,18.8l5.5,4.2L387.6,154L387.6,154z M252.5,226.6l14.3-28.3l-22.3-15.8l-38.2,11.3l-4.8,9.6l1.9,8.2
			l10.6,20.1l6.5,2.9L252.5,226.6L252.5,226.6z M172,302.1l6.3-4.6l1.8-3l-10-16.8l-21.8-21.6l-15.7-13.5l-10.4,3.2l-8.6,21.2
			l1.3,5.5l6.6,0.3l15.8-8.5l4.1-0.6l8.1,9.5l1.5,13.3l0.5,13.9l12.3,6.6L172,302.1L172,302.1z M210.4,249.4l-6.4,3.1l-3.7-5.6
			l-3.1-10L178,211.1l-18.3,5.1l2.2,10l4.1,9.1l5.9,9.7l2.9,8.8l6.2,4.9l14.6-1.3l8.9,0.8l8.7-7.3L210.4,249.4L210.4,249.4z
			 M351,136.5l-47.7,5.3L351,136.5L351,136.5z M280.3,193.1l2.1-0.5l3.6-11.5l-3.8-5.9l-8.4,1.2l-1,7.3L280.3,193.1L280.3,193.1z"/>
	</g>
</g>
</svg>
