<?xml version="1.0" encoding="utf-8"?>
<!-- Generator: Adobe Illustrator 19.1.0, SVG Export Plug-In . SVG Version: 6.00 Build 0)  -->
<svg version="1.1" id="Layer_1" xmlns="http://www.w3.org/2000/svg" xmlns:xlink="http://www.w3.org/1999/xlink" x="0px" y="0px"
	 viewBox="0 0 600 600" style="enable-background:new 0 0 600 600;" xml:space="preserve">
<style type="text/css">
	.st0{fill:#EEEEEE;}
</style>
<g id="Qntvbk_1_">
	<g>
		<path class="st0" d="M130.1,154l1.2-1.6l5.5-4.2l29.1-18.8l25.3-3.8l53.5,17.3l47.8,25.9l59.8,23.3l8.7,4.9l9,4.1l31.8,14.6
			l11.8,9.8l3.5,5.8l5,17.9l15.1,20.9l3.6,18.2l-1.6,10.9l-8.8,10.3l-1.8,0.8l-27.4,6.3h-2l-17.3,13.7l-4.7,30l-2.3,4.4l-3.6-2.8
			l-12.4-13.5l-7.3-1.8l1.3,17.6l-19.5-6.7l-8.1,0.7l-17.6,6.9l-25.5,9.6l-3.4,0.3l-6.2,2.1l-46.8,1.9l-15.6-9.7L181,353.4
			l-68.8-27.7l-16.6-7.4l-9.5-8.1L76.9,279l5.3-11.7l1.3,0.5l2.2,7.6l5.5-3.6l1.7,7.5l9-8.1l0.1,14.4l7.5-7.2l2.6,11.1l13.4-16.8
			l1.5,0.6l2.2,23.1l3.8-8.2l6.8,9.9l13.3-12.9l-2.8,12.5l7.1,1.7l8-3l5.6-8l1.4,0.8l0.7,10.6l6.5-9.2l1,0.4l0.2,10.4l1.4,0.5
			l7.3-10.4l1,0.5v8.9l14.4-9.2l2.7,5l20.2-6.9l8.4-1.7l32,3.1l23.6,7.7l8.9,6.3l-4.2-12.3l-5.3-10.8l-6.7-10.5l-11.3-9.6
			l-23.9-18.9l-14.2,2.9l-1.1-1.1l-0.8-8l-5.1,5.5l-1-10.2l-7.4,7.7l-1.3-11.5l-9,11.3l0.6-16l-10.8,12.6l0.8-19.5l-12.4,9.7
			l2.1-12.2l-15.4,16.3l-1.6-0.5l4-24.6l-8.1,6.5l7-24.5l-14.5,10.3l3.5-16.3l-14.4,13.7l-0.8-0.6l5-21.9l-0.9-0.3l-6,6.1l-0.2-8.9
			l-3.3,1.5v-6.3l-4.4,5.1l0.5-7.5l-7.4,5.2L130.1,154L130.1,154z M265.2,226.6l32,8l6.5-2.9l10.6-20.1l1.9-8.2l-4.8-9.6l-38.2-11.3
			l-22.3,15.8L265.2,226.6L265.2,226.6z M345.7,302.1l8.2,4.9l12.3-6.6l0.5-13.9l1.5-13.3l8.1-9.5l4.1,0.6l15.8,8.5l6.6-0.3l1.3-5.5
			l-8.6-21.2l-10.4-3.2l-15.7,13.5l-21.8,21.6l-10,16.8l1.8,3L345.7,302.1L345.7,302.1z M307.3,249.4l-2.8,1.5l8.7,7.3l8.9-0.8
			l14.6,1.3l6.2-4.9l2.9-8.8l5.9-9.7l4.1-9.1l2.2-10l-18.3-5.1l-19.2,25.8l-3.1,10l-3.7,5.6L307.3,249.4L307.3,249.4z M166.7,136.5
			l47.7,5.3L166.7,136.5L166.7,136.5z M237.4,193.1l7.5-9.4l-1-7.3l-8.4-1.2l-3.8,5.9l3.6,11.5L237.4,193.1L237.4,193.1z"/>
	</g>
</g>
</svg>
