<?xml version="1.0" encoding="utf-8"?>
<!-- Generator: Adobe Illustrator 19.1.0, SVG Export Plug-In . SVG Version: 6.00 Build 0)  -->
<svg version="1.1" id="Layer_1" xmlns="http://www.w3.org/2000/svg" xmlns:xlink="http://www.w3.org/1999/xlink" x="0px" y="0px"
	 viewBox="0 0 600 600" style="enable-background:new 0 0 600 600;" xml:space="preserve">
<style type="text/css">
	.st0{fill:none;stroke:#F79D81;stroke-width:50;stroke-miterlimit:10;}
	.st1{fill:#90A4AE;}
</style>
<path class="st0" d="M-71.8,201C-35,188,35.5,199,81,227.7c64.3,40.5,84.9,80.1,141.3,81.3s65.3,1.6,114,19.4
	c68,25,66,51.7,137.4,30.6s106.2-69.6,158.3-59"/>
<g>
	<path class="st1" d="M438.2,363.8c-28.6,0-45.5-12.1-63.1-24.6c-12.7-9-25.8-18.4-47.4-26.3C296,301.3,285,301.5,258.3,302
		c-9.7,0.2-21.7,0.4-36.7,0.1c-42.3-0.9-67.8-19.3-94.8-38.8c-15.8-11.4-33.7-24.3-58.3-36.3c-16-7.8-42.9-13.8-74-16.4
		c-30.2-2.5-51.7-0.8-56.5,0.6c0,0,0.5-0.2,1.4-0.6L-98,178.5c17.6-8.8,51.6-11.3,69-10c22.8,1.7,77.5-6.5,119.4,13.5
		c28.6,13.6,49.1,28.8,65.7,40.7c24.9,17.9,39.9,28.8,66.6,29.3c14.1,0.3,25,0.1,34.7-0.1c29.3-0.5,47-0.9,87.5,14
		c27.9,10.2,45.2,22.6,59.2,32.5c20.8,14.8,28.5,20.3,62.2,10.4c25.3-7.5,45.6-15.3,63.6-22.2c33-12.7,59.1-22.8,87.7-18.2
		l-7.9,49.4c-15.3-2.5-33.8,4.7-61.8,15.5c-17.9,6.9-40.2,15.5-67.4,23.5C463.8,361.8,450,363.8,438.2,363.8z"/>
</g>
</svg>
