<?xml version="1.0" encoding="utf-8"?>
<!-- Generator: Adobe Illustrator 19.0.1, SVG Export Plug-In . SVG Version: 6.00 Build 0)  -->
<svg version="1.1" id="Layer_1" xmlns="http://www.w3.org/2000/svg" xmlns:xlink="http://www.w3.org/1999/xlink" x="0px" y="0px"
	 viewBox="0 -1500 1920 3100" style="enable-background:new 0 -1500 1920 3100;" xml:space="preserve">
<style type="text/css">
	.st0{fill:#556F7A;}
	.st1{fill:#4CB6AC;}
	.st2{fill:#04897B;}
	.st3{fill:#80CBC4;}
	.st4{fill:#B3E0DB;}
	.st5{fill:#25A69A;}
	.st6{fill:none;}
	.st7{fill:#B7DED6;}
	.st8{fill:#273238;}
	.st9{fill:none;stroke:#4CB6AC;stroke-width:8;stroke-miterlimit:10;}
	.st10{fill:#37474F;}
	.st11{opacity:0.8;fill:#04897B;enable-background:new    ;}
	.st12{fill:#B0BEC5;}
	.st13{fill:#78909C;}
	.st14{fill:#FAA629;}
	.st15{fill:none;stroke:#444444;stroke-width:1.8183;stroke-miterlimit:10;}
	.st16{fill:none;stroke:#FFCC2A;stroke-width:1.8183;stroke-miterlimit:10;}
	.st17{fill:#FFD54E;}
	.st18{fill:none;stroke:#FFCC2A;stroke-width:3.0481;stroke-miterlimit:10;}
	.st19{fill:#FFCC2A;}
	.st20{fill:#444444;}
	.st21{fill:#626363;}
	.st22{fill:#E0E1E0;}
	.st23{fill:none;stroke:#444444;stroke-width:1.2192;stroke-miterlimit:10;}
	.st24{fill:#EA682E;}
	.st25{fill:#292921;}
	.st26{fill:#E6B660;}
	.st27{fill:#B0772A;}
	.st28{fill:#465C66;}
	.st29{fill:#FBB317;}
	.st30{fill:#384850;}
	.st31{fill:#F2824D;}
	.st32{fill:#F58A68;}
	.st33{fill:#FFFFFF;}
	.st34{fill:#EF4538;}
	.st35{fill:#FCB316;}
	.st36{fill:#565457;}
	.st37{fill:#494B3B;}
	.st38{fill:#655638;}
	.st39{fill:#3F2723;}
	.st40{fill:#7A5823;}
	.st41{fill:#5E4238;}
	.st42{fill:#C2842B;}
	.st43{fill:#912C8D;}
	.st44{fill:#614D1F;}
	.st45{fill:#A77A2B;}
	.st46{fill:#9B722A;}
	.st47{fill:#735421;}
	.st48{fill:#B99456;}
	.st49{fill:#5D502F;}
	.st50{fill:#EB6930;}
	.st51{fill:#F4844D;}
	.st52{fill:#273238;stroke:#B0BEC5;stroke-width:0.7891;stroke-miterlimit:10;}
</style>
<g>
	<g>
		<polygon class="st0" points="373.3,1543.3 360.4,1530.4 349.8,1530.4 349.8,1555.4 373.3,1555.4 		"/>
		<rect x="335.9" y="1530.4" class="st0" width="9.8" height="25"/>
	</g>
</g>
<g>
	<rect x="1606.9" y="956.1" class="st1" width="315.1" height="643.2"/>
</g>
<rect x="1114.9" y="1247.6" class="st2" width="258.9" height="351.6"/>
<g>
	<path class="st3" d="M1068.4-127.7l-8.5-169c0,0-7.6,151.1-8.5,169L911.5,23v101.6h296.8V23L1068.4-127.7z"/>
	<polygon class="st1" points="1030.5,-32.4 1059.9,-128 1089.3,-32.4 	"/>
	<rect x="911.5" y="690.4" class="st3" width="296.8" height="908.9"/>
	<polygon class="st1" points="928.2,906.8 928.2,327.3 1030.5,217.1 1030.5,-32.4 911.5,95.8 911.5,1144.9 928.2,1144.9 	"/>
	<polygon class="st1" points="1089.3,-32.4 1089.3,217.1 1191.6,327.3 1191.6,906.8 1191.6,1144.9 1208.3,1144.9 1208.3,95.8 	"/>
	<polygon class="st3" points="928.2,327.3 928.2,906.8 944.8,906.8 944.8,541 1030.5,448.6 1030.5,217.1 	"/>
	<polygon class="st3" points="1175,541 1175,906.8 1191.6,906.8 1191.6,327.3 1089.3,217.1 1089.3,448.6 	"/>
	<rect x="911.5" y="1144.9" class="st4" width="16.7" height="454.4"/>
	<rect x="1191.6" y="1144.9" class="st4" width="16.7" height="454.4"/>
	<polygon class="st4" points="1191.6,906.8 1175,906.8 1175,541 1089.3,448.6 1089.3,1599.3 1175,1599.3 1191.6,1599.3 
		1191.6,1144.9 	"/>
	<polygon class="st4" points="944.8,541 944.8,906.8 928.2,906.8 928.2,1144.9 928.2,1599.3 944.8,1599.3 1030.5,1599.3 
		1030.5,448.6 	"/>
	<polygon class="st5" points="1059.9,185.5 1089.3,217.1 1089.3,-32.4 1059.9,-64 1030.5,-32.4 1030.5,217.1 	"/>
	<polygon class="st1" points="1030.5,217.1 1030.5,448.6 1059.9,417 1089.3,448.6 1089.3,217.1 1059.9,185.5 	"/>
	<polygon class="st3" points="1059.9,417 1030.5,448.6 1030.5,1599.3 1089.3,1599.3 1089.3,448.6 	"/>
	<line class="st6" x1="1059.9" y1="-128" x2="1059.9" y2="-296.7"/>
	<polygon class="st1" points="1068.4,-127.7 1208.3,50.1 1208.3,22.9 	"/>
	<polygon class="st1" points="911.5,50.1 1051.4,-127.7 911.5,22.9 	"/>
</g>
<g>
	<g>
		<rect x="1331.4" y="-1003.6" class="st4" width="139.5" height="24.7"/>
		<rect x="1313.6" y="-1254.3" class="st4" width="31.5" height="275.4"/>
		<rect x="1455.2" y="-1208.7" class="st4" width="31.5" height="229.8"/>
		<rect x="1318.8" y="-1314.1" class="st4" width="21" height="59.8"/>
		<rect x="1460.4" y="-1314.1" class="st4" width="21" height="105.4"/>
		<rect x="1322.7" y="-1414" class="st4" width="13.1" height="99.9"/>
		<rect x="1464.4" y="-1438.9" class="st4" width="13.1" height="124.8"/>
		<rect x="1327.3" y="-1417.9" class="st4" width="3.9" height="3.9"/>
		<rect x="1469" y="-1442.8" class="st4" width="3.9" height="3.9"/>
		<rect x="1503.4" y="-1116.6" class="st4" width="13.6" height="137.7"/>
		<rect x="1503.4" y="-1174.5" class="st4" width="6.8" height="58"/>
		<rect x="1286.8" y="-1116.6" class="st4" width="13.6" height="137.7"/>
		<rect x="1286.8" y="-1174.5" class="st4" width="6.8" height="58"/>
		<rect x="1292.1" y="-1086.4" class="st4" width="22.3" height="7"/>
		<rect x="1482.5" y="-1086.4" class="st4" width="22.3" height="7"/>
	</g>
	<rect x="1266.6" y="-981.1" class="st1" width="270.6" height="2580.4"/>
	<rect x="1401.9" y="-523.2" class="st3" width="135.3" height="2122.6"/>
	<rect x="1537.3" y="-523.2" class="st4" width="135.3" height="2122.6"/>
	<rect x="1401.9" y="1114.7" class="st2" width="270.6" height="48.3"/>
	<rect x="1266.6" y="538.1" class="st4" width="135.3" height="1061.3"/>
	<rect x="1672.6" y="869.3" class="st7" width="135.3" height="730.1"/>
	<rect x="1401.9" y="-523.2" class="st2" width="135.3" height="24.1"/>
	<rect x="1266.6" y="538.1" class="st8" width="405.9" height="24.1"/>
</g>
<polygon class="st2" points="258.9,1599.2 0,1599.2 0,786.2 258.9,888.1 "/>
<g>
	<rect x="187" y="-712.5" class="st3" width="468.2" height="2311.9"/>
	<g>
		<line class="st9" x1="232.3" y1="-672" x2="232.3" y2="1558.8"/>
		<line class="st9" x1="263.8" y1="-672" x2="263.8" y2="1558.8"/>
		<line class="st9" x1="295.2" y1="-672" x2="295.2" y2="1558.8"/>
		<line class="st9" x1="326.7" y1="-672" x2="326.7" y2="1558.8"/>
		<line class="st9" x1="358.1" y1="-672" x2="358.1" y2="1558.8"/>
		<line class="st9" x1="389.6" y1="-672" x2="389.6" y2="1558.8"/>
		<line class="st9" x1="421.1" y1="-672" x2="421.1" y2="1558.8"/>
		<line class="st9" x1="452.5" y1="-672" x2="452.5" y2="1558.8"/>
		<line class="st9" x1="484" y1="-672" x2="484" y2="1558.8"/>
		<line class="st9" x1="515.5" y1="-672" x2="515.5" y2="1558.8"/>
		<line class="st9" x1="546.9" y1="-672" x2="546.9" y2="1558.8"/>
		<line class="st9" x1="578.4" y1="-672" x2="578.4" y2="1558.8"/>
		<line class="st9" x1="609.9" y1="-672" x2="609.9" y2="1558.8"/>
	</g>
</g>
<g>
	<rect x="79.6" y="1103.7" class="st1" width="342.2" height="495.5"/>
	<g>
		<rect x="107.2" y="1161.5" class="st2" width="24" height="75.7"/>
		<rect x="159.8" y="1161.5" class="st2" width="24" height="75.7"/>
		<rect x="212.4" y="1161.5" class="st2" width="24" height="75.7"/>
		<rect x="265" y="1161.5" class="st2" width="24" height="75.7"/>
		<rect x="317.6" y="1161.5" class="st2" width="24" height="75.7"/>
		<rect x="370.2" y="1161.5" class="st2" width="24" height="75.7"/>
	</g>
	<g>
		<rect x="107.2" y="1267.3" class="st2" width="24" height="75.7"/>
		<rect x="159.8" y="1267.3" class="st2" width="24" height="75.7"/>
		<rect x="212.4" y="1267.3" class="st2" width="24" height="75.7"/>
		<rect x="265" y="1267.3" class="st2" width="24" height="75.7"/>
		<rect x="317.6" y="1267.3" class="st2" width="24" height="75.7"/>
		<rect x="370.2" y="1267.3" class="st2" width="24" height="75.7"/>
	</g>
	<g>
		<rect x="107.2" y="1373" class="st2" width="24" height="75.7"/>
		<rect x="159.8" y="1373" class="st2" width="24" height="75.7"/>
		<rect x="212.4" y="1373" class="st2" width="24" height="75.7"/>
		<rect x="265" y="1373" class="st2" width="24" height="75.7"/>
		<rect x="317.6" y="1373" class="st2" width="24" height="75.7"/>
		<rect x="370.2" y="1373" class="st2" width="24" height="75.7"/>
	</g>
	<g>
		<rect x="107.2" y="1478.7" class="st2" width="24" height="75.7"/>
		<rect x="159.8" y="1478.7" class="st2" width="24" height="75.7"/>
		<rect x="212.4" y="1478.7" class="st2" width="24" height="75.7"/>
		<rect x="265" y="1478.7" class="st2" width="24" height="75.7"/>
		<rect x="317.6" y="1478.7" class="st2" width="24" height="75.7"/>
		<rect x="370.2" y="1478.7" class="st2" width="24" height="75.7"/>
	</g>
</g>
<g>
	<polygon class="st3" points="574.6,599.3 574.6,1599.4 761,1599.4 761,785.7 	"/>
	<rect x="574.6" y="794.6" class="st10" width="180.9" height="8.9"/>
	<rect x="574.6" y="812.4" class="st10" width="180.9" height="8.9"/>
	<rect x="574.6" y="830.2" class="st10" width="180.9" height="8.9"/>
	<rect x="574.6" y="848" class="st10" width="180.9" height="8.9"/>
	<rect x="574.6" y="865.8" class="st10" width="180.9" height="8.9"/>
	<rect x="574.6" y="883.6" class="st10" width="180.9" height="8.9"/>
	<rect x="574.6" y="901.4" class="st10" width="180.9" height="8.9"/>
	<rect x="574.6" y="919.2" class="st10" width="180.9" height="8.9"/>
	<rect x="574.6" y="937" class="st10" width="180.9" height="8.9"/>
	<rect x="574.6" y="954.8" class="st10" width="180.9" height="8.9"/>
	<rect x="574.6" y="972.6" class="st10" width="180.9" height="8.9"/>
	<rect x="574.6" y="990.4" class="st10" width="180.9" height="8.9"/>
	<rect x="574.6" y="1008.2" class="st10" width="180.9" height="8.9"/>
	<rect x="574.6" y="1026.1" class="st10" width="180.9" height="8.9"/>
	<rect x="574.6" y="1043.9" class="st10" width="180.9" height="8.9"/>
	<rect x="574.6" y="1061.7" class="st10" width="180.9" height="8.9"/>
	<rect x="574.6" y="1079.5" class="st10" width="180.9" height="8.9"/>
	<rect x="574.6" y="1097.3" class="st10" width="180.9" height="8.9"/>
	<rect x="574.6" y="1115.1" class="st10" width="180.9" height="8.9"/>
	<rect x="574.6" y="1132.9" class="st10" width="180.9" height="8.9"/>
	<rect x="574.6" y="1150.7" class="st10" width="180.9" height="8.9"/>
	<rect x="574.6" y="1168.5" class="st10" width="180.9" height="8.9"/>
	<rect x="574.6" y="1186.3" class="st10" width="180.9" height="8.9"/>
	<rect x="574.6" y="1204.1" class="st10" width="180.9" height="8.9"/>
	<rect x="574.6" y="1221.9" class="st10" width="180.9" height="8.9"/>
	<rect x="574.6" y="1239.7" class="st10" width="180.9" height="8.9"/>
	<rect x="574.6" y="1257.5" class="st10" width="180.9" height="8.9"/>
	<rect x="574.6" y="1275.3" class="st10" width="180.9" height="8.9"/>
	<rect x="574.6" y="1293.1" class="st10" width="180.9" height="8.9"/>
	<rect x="574.6" y="1310.9" class="st10" width="180.9" height="8.9"/>
	<rect x="574.6" y="1328.7" class="st10" width="180.9" height="8.9"/>
	<rect x="574.6" y="1346.5" class="st10" width="180.9" height="8.9"/>
	<rect x="574.6" y="1364.3" class="st10" width="180.9" height="8.9"/>
	<rect x="574.6" y="1382.1" class="st10" width="180.9" height="8.9"/>
	<rect x="574.6" y="1399.9" class="st10" width="180.9" height="8.9"/>
	<rect x="574.6" y="1417.7" class="st10" width="180.9" height="8.9"/>
	<rect x="574.6" y="1435.5" class="st10" width="180.9" height="8.9"/>
	<rect x="574.6" y="1453.3" class="st10" width="180.9" height="8.9"/>
	<rect x="574.6" y="1471.1" class="st10" width="180.9" height="8.9"/>
	<rect x="574.6" y="1488.9" class="st10" width="180.9" height="8.9"/>
	<rect x="574.6" y="1506.7" class="st10" width="180.9" height="8.9"/>
	<rect x="574.6" y="1524.5" class="st10" width="180.9" height="8.9"/>
	<rect x="574.6" y="1542.3" class="st10" width="180.9" height="8.9"/>
	<rect x="574.6" y="1560.1" class="st10" width="180.9" height="8.9"/>
	<rect x="574.6" y="1577.9" class="st10" width="180.9" height="8.9"/>
	<polygon class="st10" points="574.6,777.3 574.6,786.2 748.4,786.2 739.5,777.3 	"/>
	<polygon class="st10" points="574.6,617 574.6,626 588.1,626 579.2,617 	"/>
	<polygon class="st10" points="574.6,634.9 574.6,643.8 606.1,643.8 597.2,634.9 	"/>
	<polygon class="st10" points="574.6,652.7 574.6,661.6 623.9,661.6 615,652.7 	"/>
	<polygon class="st10" points="574.6,670.5 574.6,679.4 641.5,679.4 632.6,670.5 	"/>
	<polygon class="st10" points="574.6,688.3 574.6,697.2 659.5,697.2 650.6,688.3 	"/>
	<polygon class="st10" points="574.6,706.1 574.6,715 677.3,715 668.3,706.1 	"/>
	<polygon class="st10" points="574.6,723.9 574.6,732.8 694.8,732.8 685.9,723.9 	"/>
	<polygon class="st10" points="574.6,741.7 574.6,750.6 712.8,750.6 703.9,741.7 	"/>
	<polygon class="st10" points="574.6,759.5 574.6,768.4 730.5,768.4 721.6,759.5 	"/>
	<polygon class="st10" points="798.7,412.9 798.7,510.7 761,510.7 761,412.9 574.6,599.3 761,785.7 761,768.4 798.7,768.4 
		816.1,768.4 985.2,599.3 	"/>
	<polygon class="st1" points="816.1,768.4 798.7,768.4 761,768.4 761,785.7 761,1599.4 820.2,1599.4 985.2,1599.4 985.2,599.3 	"/>
	<polygon class="st10" points="985.2,616.6 985.2,625.5 971.6,625.5 980.5,616.6 	"/>
	<polygon class="st10" points="985.2,634.4 985.2,643.3 953.6,643.3 962.5,634.4 	"/>
	<polygon class="st10" points="985.2,652.2 985.2,661.1 935.9,661.1 944.8,652.2 	"/>
	<polygon class="st10" points="985.2,670 985.2,678.9 918.3,678.9 927.2,670 	"/>
	<polygon class="st10" points="985.2,687.8 985.2,696.7 900.3,696.7 909.2,687.8 	"/>
	<polygon class="st10" points="985.2,705.6 985.2,714.5 882.5,714.5 891.4,705.6 	"/>
	<polygon class="st10" points="985.2,723.4 985.2,732.3 865,732.3 873.9,723.4 	"/>
	<polygon class="st10" points="985.2,741.2 985.2,750.1 847,750.1 855.9,741.2 	"/>
	<polygon class="st10" points="985.2,759 985.2,767.9 829.2,767.9 838.1,759 	"/>
	<rect x="766.9" y="776.8" class="st10" width="218.2" height="8.9"/>
	<rect x="766.9" y="794.6" class="st10" width="218.2" height="8.9"/>
	<rect x="766.9" y="812.4" class="st10" width="218.2" height="8.9"/>
	<rect x="766.9" y="830.2" class="st10" width="218.2" height="8.9"/>
	<rect x="766.9" y="848" class="st10" width="218.2" height="8.9"/>
	<rect x="766.9" y="865.8" class="st10" width="218.2" height="8.9"/>
	<rect x="766.9" y="883.6" class="st10" width="218.2" height="8.9"/>
	<rect x="766.9" y="901.4" class="st10" width="218.2" height="8.9"/>
	<rect x="766.9" y="919.2" class="st10" width="218.2" height="8.9"/>
	<rect x="766.9" y="937" class="st10" width="218.2" height="8.9"/>
	<rect x="766.9" y="954.8" class="st10" width="218.2" height="8.9"/>
	<rect x="766.9" y="972.6" class="st10" width="218.2" height="8.9"/>
	<rect x="766.9" y="990.4" class="st10" width="218.2" height="8.9"/>
	<rect x="766.9" y="1008.2" class="st10" width="218.2" height="8.9"/>
	<rect x="766.9" y="1026.1" class="st10" width="218.2" height="8.9"/>
	<rect x="766.9" y="1043.9" class="st10" width="218.2" height="8.9"/>
	<rect x="766.9" y="1061.7" class="st10" width="218.2" height="8.9"/>
	<rect x="766.9" y="1079.5" class="st10" width="218.2" height="8.9"/>
	<rect x="766.9" y="1097.3" class="st10" width="218.2" height="8.9"/>
	<rect x="766.9" y="1115.1" class="st10" width="218.2" height="8.9"/>
	<rect x="766.9" y="1132.9" class="st10" width="218.2" height="8.9"/>
	<rect x="766.9" y="1150.7" class="st10" width="218.2" height="8.9"/>
	<rect x="766.9" y="1168.5" class="st10" width="218.2" height="8.9"/>
	<rect x="766.9" y="1186.3" class="st10" width="218.2" height="8.9"/>
	<rect x="766.9" y="1204.1" class="st10" width="218.2" height="8.9"/>
	<rect x="766.9" y="1221.9" class="st10" width="218.2" height="8.9"/>
	<rect x="766.9" y="1239.7" class="st10" width="218.2" height="8.9"/>
	<rect x="766.9" y="1257.5" class="st10" width="218.2" height="8.9"/>
	<rect x="766.9" y="1275.3" class="st10" width="218.2" height="8.9"/>
	<rect x="766.9" y="1293.1" class="st10" width="218.2" height="8.9"/>
	<rect x="766.9" y="1310.9" class="st10" width="218.2" height="8.9"/>
	<rect x="766.9" y="1328.7" class="st10" width="218.2" height="8.9"/>
	<rect x="766.9" y="1346.5" class="st10" width="218.2" height="8.9"/>
	<rect x="766.9" y="1364.3" class="st10" width="218.2" height="8.9"/>
	<rect x="766.9" y="1382.1" class="st10" width="218.2" height="8.9"/>
	<rect x="766.9" y="1399.9" class="st10" width="218.2" height="8.9"/>
	<rect x="766.9" y="1417.7" class="st10" width="218.2" height="8.9"/>
	<rect x="766.9" y="1435.5" class="st10" width="218.2" height="8.9"/>
	<rect x="766.9" y="1453.3" class="st10" width="218.2" height="8.9"/>
	<rect x="766.9" y="1471.1" class="st10" width="218.2" height="8.9"/>
	<rect x="766.9" y="1488.9" class="st10" width="218.2" height="8.9"/>
	<rect x="766.9" y="1506.7" class="st10" width="218.2" height="8.9"/>
	<rect x="766.9" y="1524.5" class="st10" width="218.2" height="8.9"/>
	<rect x="766.9" y="1542.3" class="st10" width="218.2" height="8.9"/>
	<rect x="766.9" y="1560.1" class="st10" width="218.2" height="8.9"/>
	<rect x="766.9" y="1577.9" class="st10" width="218.2" height="8.9"/>
</g>
<g>
	<rect x="0.1" y="1510.1" class="st11" width="482.5" height="89.9"/>
	<rect x="119.8" y="1510.1" class="st12" width="3.5" height="89.9"/>
	<rect x="0.1" y="1510.1" class="st12" width="3.5" height="89.9"/>
	<rect x="0.1" y="1510.1" class="st12" width="123.2" height="3.5"/>
	<rect x="0.1" y="1553.3" class="st12" width="123.2" height="3.5"/>
	<rect x="239.6" y="1510.1" class="st12" width="3.5" height="89.9"/>
	<rect x="119.8" y="1510.1" class="st12" width="123.2" height="3.5"/>
	<rect x="119.8" y="1553.3" class="st12" width="123.2" height="3.5"/>
	<rect x="359.3" y="1510.1" class="st12" width="3.5" height="89.9"/>
	<rect x="239.6" y="1510.1" class="st12" width="123.2" height="3.5"/>
	<rect x="239.6" y="1553.3" class="st12" width="123.2" height="3.5"/>
	<rect x="479.1" y="1510.1" class="st12" width="3.5" height="89.9"/>
	<rect x="359.3" y="1510.1" class="st12" width="123.2" height="3.5"/>
	<rect x="359.3" y="1553.3" class="st12" width="123.2" height="3.5"/>
</g>
<g>
	<rect x="479.3" y="1510.1" class="st11" width="482.5" height="89.9"/>
	<rect x="599.1" y="1510.1" class="st12" width="3.5" height="89.9"/>
	<rect x="479.3" y="1510.1" class="st12" width="3.5" height="89.9"/>
	<rect x="479.3" y="1510.1" class="st12" width="123.2" height="3.5"/>
	<rect x="479.3" y="1553.3" class="st12" width="123.2" height="3.5"/>
	<rect x="718.8" y="1510.1" class="st12" width="3.5" height="89.9"/>
	<rect x="599.1" y="1510.1" class="st12" width="123.2" height="3.5"/>
	<rect x="599.1" y="1553.3" class="st12" width="123.2" height="3.5"/>
	<rect x="838.6" y="1510.1" class="st12" width="3.5" height="89.9"/>
	<rect x="718.8" y="1510.1" class="st12" width="123.2" height="3.5"/>
	<rect x="718.8" y="1553.3" class="st12" width="123.2" height="3.5"/>
	<rect x="958.4" y="1510.1" class="st12" width="3.5" height="89.9"/>
	<rect x="838.6" y="1510.1" class="st12" width="123.2" height="3.5"/>
	<rect x="838.6" y="1553.3" class="st12" width="123.2" height="3.5"/>
</g>
<g>
	<rect x="958.6" y="1510.1" class="st11" width="482.5" height="89.9"/>
	<rect x="1078.4" y="1510.1" class="st12" width="3.5" height="89.9"/>
	<rect x="958.6" y="1510.1" class="st12" width="3.5" height="89.9"/>
	<rect x="958.6" y="1510.1" class="st12" width="123.2" height="3.5"/>
	<rect x="958.6" y="1553.3" class="st12" width="123.2" height="3.5"/>
	<rect x="1198.1" y="1510.1" class="st12" width="3.5" height="89.9"/>
	<rect x="1078.4" y="1510.1" class="st12" width="123.2" height="3.5"/>
	<rect x="1078.4" y="1553.3" class="st12" width="123.2" height="3.5"/>
	<rect x="1317.9" y="1510.1" class="st12" width="3.5" height="89.9"/>
	<rect x="1198.1" y="1510.1" class="st12" width="123.2" height="3.5"/>
	<rect x="1198.1" y="1553.3" class="st12" width="123.2" height="3.5"/>
	<rect x="1437.6" y="1510.1" class="st12" width="3.5" height="89.9"/>
	<rect x="1317.9" y="1510.1" class="st12" width="123.2" height="3.5"/>
	<rect x="1317.9" y="1553.3" class="st12" width="123.2" height="3.5"/>
</g>
<g>
	<rect x="1437.5" y="1510.1" class="st11" width="482.5" height="89.9"/>
	<rect x="1557.2" y="1510.1" class="st12" width="3.5" height="89.9"/>
	<rect x="1437.5" y="1510.1" class="st12" width="3.5" height="89.9"/>
	<rect x="1437.5" y="1510.1" class="st12" width="123.2" height="3.5"/>
	<rect x="1437.5" y="1553.3" class="st12" width="123.2" height="3.5"/>
	<rect x="1677" y="1510.1" class="st12" width="3.5" height="89.9"/>
	<rect x="1557.2" y="1510.1" class="st12" width="123.2" height="3.5"/>
	<rect x="1557.2" y="1553.3" class="st12" width="123.2" height="3.5"/>
	<rect x="1796.8" y="1510.1" class="st12" width="3.5" height="89.9"/>
	<rect x="1677" y="1510.1" class="st12" width="123.2" height="3.5"/>
	<rect x="1677" y="1553.3" class="st12" width="123.2" height="3.5"/>
	<rect x="1916.5" y="1510.1" class="st12" width="3.5" height="89.9"/>
	<rect x="1796.8" y="1510.1" class="st12" width="123.2" height="3.5"/>
	<rect x="1796.8" y="1553.3" class="st12" width="123.2" height="3.5"/>
</g>
<g>
	<g>
		<g>
			<rect x="1802.6" y="1197.9" class="st13" width="11.4" height="401.3"/>
		</g>
		<g>
			<rect x="1648.2" y="1197.9" class="st13" width="11.4" height="401.3"/>
		</g>
		<g>
			<rect x="1493.7" y="1197.9" class="st13" width="11.4" height="401.3"/>
		</g>
		<g>
			<rect x="1339.3" y="1197.9" class="st13" width="11.4" height="401.3"/>
		</g>
	</g>
	<g>
		<rect x="1184.8" y="1302.2" class="st13" width="11.4" height="297"/>
	</g>
	<g>
		<rect x="1030.4" y="1302.2" class="st13" width="11.4" height="297"/>
	</g>
	<g>
		<rect x="1339.8" y="1197.9" class="st13" width="468.5" height="10.4"/>
	</g>
	<g>
		<rect x="1030.4" y="1295" class="st13" width="783.6" height="11.4"/>
	</g>
	<g>
		<rect x="1036.1" y="1392.6" class="st13" width="777.9" height="11.4"/>
	</g>
	<g>
		<rect x="1036.1" y="1490.3" class="st13" width="777.9" height="11.4"/>
	</g>
	<g>
		<g>
			<rect x="1320.6" y="1262" class="st14" width="506.9" height="5.2"/>
		</g>
		<g>
			<rect x="1320.6" y="1247.6" class="st14" width="506.9" height="5.2"/>
		</g>
		<g>
			<rect x="1320.6" y="1276.9" class="st14" width="506.9" height="5.2"/>
		</g>
		<g>
			<rect x="1320.6" y="1291.9" class="st14" width="506.9" height="5.2"/>
		</g>
		<rect x="1823.7" y="1247.6" class="st13" width="3.8" height="49.5"/>
		<rect x="1777.9" y="1247.6" class="st13" width="3.8" height="49.5"/>
		<rect x="1732.2" y="1247.6" class="st13" width="3.8" height="49.5"/>
		<rect x="1686.5" y="1247.6" class="st13" width="3.8" height="49.5"/>
		<rect x="1640.7" y="1247.6" class="st13" width="3.8" height="49.5"/>
		<rect x="1549.3" y="1247.6" class="st13" width="3.8" height="49.5"/>
		<rect x="1457.8" y="1247.6" class="st13" width="3.8" height="49.5"/>
		<rect x="1412.1" y="1247.6" class="st13" width="3.8" height="49.5"/>
		<rect x="1595" y="1247.6" class="st13" width="3.8" height="49.5"/>
		<rect x="1366.3" y="1247.6" class="st13" width="3.8" height="49.5"/>
		<rect x="1503.5" y="1247.6" class="st13" width="3.8" height="49.5"/>
		<rect x="1320.6" y="1247.6" class="st13" width="3.8" height="49.5"/>
	</g>
	<g>
		<rect x="1320.6" y="1357.5" class="st14" width="506.9" height="5.2"/>
	</g>
	<g>
		<rect x="1320.6" y="1343.1" class="st14" width="506.9" height="5.2"/>
	</g>
	<g>
		<rect x="1320.6" y="1372.5" class="st14" width="506.9" height="5.2"/>
	</g>
	<g>
		<rect x="1320.6" y="1387.5" class="st14" width="506.9" height="5.2"/>
	</g>
	<rect x="1823.7" y="1343.1" class="st13" width="3.8" height="49.5"/>
	<rect x="1777.9" y="1343.1" class="st13" width="3.8" height="49.5"/>
	<rect x="1732.2" y="1343.1" class="st13" width="3.8" height="49.5"/>
	<rect x="1686.5" y="1343.1" class="st13" width="3.8" height="49.5"/>
	<rect x="1640.7" y="1343.1" class="st13" width="3.8" height="49.5"/>
	<rect x="1549.3" y="1343.1" class="st13" width="3.8" height="49.5"/>
	<rect x="1457.8" y="1343.1" class="st13" width="3.8" height="49.5"/>
	<rect x="1412.1" y="1343.1" class="st13" width="3.8" height="49.5"/>
	<rect x="1595" y="1343.1" class="st13" width="3.8" height="49.5"/>
	<rect x="1366.3" y="1343.1" class="st13" width="3.8" height="49.5"/>
	<rect x="1503.5" y="1343.1" class="st13" width="3.8" height="49.5"/>
	<rect x="1320.6" y="1343.1" class="st13" width="3.8" height="49.5"/>
	<g>
		<g>
			<rect x="1000.5" y="1357.5" class="st14" width="506.9" height="5.2"/>
		</g>
		<g>
			<rect x="1000.5" y="1343.1" class="st14" width="506.9" height="5.2"/>
		</g>
		<g>
			<rect x="1000.5" y="1372.5" class="st14" width="506.9" height="5.2"/>
		</g>
		<g>
			<rect x="1000.5" y="1387.5" class="st14" width="506.9" height="5.2"/>
		</g>
		<rect x="1503.5" y="1343.1" class="st13" width="3.8" height="49.5"/>
		<rect x="1457.8" y="1343.1" class="st13" width="3.8" height="49.5"/>
		<rect x="1412.1" y="1343.1" class="st13" width="3.8" height="49.5"/>
		<rect x="1366.3" y="1343.1" class="st13" width="3.8" height="49.5"/>
		<rect x="1320.6" y="1343.1" class="st13" width="3.8" height="49.5"/>
		<rect x="1229.1" y="1343.1" class="st13" width="3.8" height="49.5"/>
		<rect x="1137.7" y="1343.1" class="st13" width="3.8" height="49.5"/>
		<rect x="1091.9" y="1343.1" class="st13" width="3.8" height="49.5"/>
		<rect x="1274.9" y="1343.1" class="st13" width="3.8" height="49.5"/>
		<rect x="1046.2" y="1343.1" class="st13" width="3.8" height="49.5"/>
		<rect x="1183.4" y="1343.1" class="st13" width="3.8" height="49.5"/>
		<rect x="1000.5" y="1343.1" class="st13" width="3.8" height="49.5"/>
	</g>
	<g>
		<g>
			<rect x="1679.4" y="1404" class="st12" width="3.8" height="195.2"/>
			<rect x="1624.5" y="1404" class="st12" width="3.8" height="195.2"/>
		</g>
		<g>
			<rect x="1626.4" y="1407.4" class="st12" width="54.9" height="3.8"/>
			
				<rect x="1670.3" y="1405" transform="matrix(0.7073 -0.7069 0.7069 0.7073 -512.7768 1597.0549)" class="st12" width="3.8" height="25.6"/>
			
				<rect x="1633.7" y="1405.1" transform="matrix(-0.7073 -0.7069 0.7069 -0.7073 1790.1077 3576.9412)" class="st12" width="3.8" height="25.6"/>
		</g>
		<g>
			<rect x="1626.4" y="1445.7" class="st12" width="54.9" height="3.8"/>
			
				<rect x="1670.3" y="1443.3" transform="matrix(0.7071 -0.7071 0.7071 0.7071 -539.8526 1608.9324)" class="st12" width="3.8" height="25.6"/>
			
				<rect x="1633.7" y="1443.4" transform="matrix(-0.7072 -0.707 0.707 -0.7072 1762.7068 3642.3667)" class="st12" width="3.8" height="25.6"/>
		</g>
		<g>
			<rect x="1626.4" y="1484.1" class="st12" width="54.9" height="3.8"/>
			
				<rect x="1670.2" y="1481.6" transform="matrix(0.707 -0.7072 0.7072 0.707 -566.9573 1620.4104)" class="st12" width="3.8" height="25.6"/>
			
				<rect x="1633.6" y="1481.6" transform="matrix(-0.7071 -0.7071 0.7071 -0.7071 1735.2228 3707.6084)" class="st12" width="3.8" height="25.6"/>
		</g>
		<g>
			<rect x="1626.4" y="1522.4" class="st12" width="54.9" height="3.8"/>
			
				<rect x="1670.3" y="1520" transform="matrix(0.707 -0.7072 0.7072 0.707 -594.0714 1631.6587)" class="st12" width="3.8" height="25.6"/>
			
				<rect x="1633.6" y="1519.9" transform="matrix(-0.7071 -0.7071 0.7071 -0.7071 1708.1649 3773.0168)" class="st12" width="3.8" height="25.6"/>
		</g>
		<g>
			<rect x="1626.4" y="1560.7" class="st12" width="54.9" height="3.8"/>
			
				<rect x="1670.3" y="1558.3" transform="matrix(0.7071 -0.7071 0.7071 0.7071 -621.14 1642.5845)" class="st12" width="3.8" height="25.6"/>
			
				<rect x="1633.6" y="1558.2" transform="matrix(-0.707 -0.7072 0.7072 -0.707 1680.7367 3838.4187)" class="st12" width="3.8" height="25.6"/>
		</g>
	</g>
	<g>
		<g>
			<rect x="1370.5" y="1404" class="st12" width="3.8" height="195.2"/>
			<rect x="1315.6" y="1404" class="st12" width="3.8" height="195.2"/>
		</g>
		<g>
			<rect x="1317.5" y="1407.4" class="st12" width="54.9" height="3.8"/>
			
				<rect x="1361.4" y="1405.1" transform="matrix(0.7069 -0.7073 0.7073 0.7069 -603.3024 1379.8065)" class="st12" width="3.8" height="25.6"/>
			
				<rect x="1324.8" y="1405" transform="matrix(-0.7071 -0.7071 0.7071 -0.7071 1262.2767 3358.4546)" class="st12" width="3.8" height="25.6"/>
		</g>
		<g>
			<rect x="1317.5" y="1445.7" class="st12" width="54.9" height="3.8"/>
			
				<rect x="1361.3" y="1443.3" transform="matrix(0.7069 -0.7073 0.7073 0.7069 -630.3911 1390.9878)" class="st12" width="3.8" height="25.6"/>
			
				<rect x="1324.8" y="1443.3" transform="matrix(-0.7071 -0.7071 0.7071 -0.7071 1235.2212 3423.8611)" class="st12" width="3.8" height="25.6"/>
		</g>
		<g>
			<rect x="1317.5" y="1484.1" class="st12" width="54.9" height="3.8"/>
			
				<rect x="1361.3" y="1481.7" transform="matrix(0.7071 -0.7071 0.7071 0.7071 -657.4554 1401.6693)" class="st12" width="3.8" height="25.6"/>
			
				<rect x="1324.8" y="1481.7" transform="matrix(-0.7071 -0.7071 0.7071 -0.7071 1207.9923 3489.3374)" class="st12" width="3.8" height="25.6"/>
		</g>
		<g>
			<rect x="1317.5" y="1522.4" class="st12" width="54.9" height="3.8"/>
			
				<rect x="1361.4" y="1519.9" transform="matrix(0.7073 -0.7069 0.7069 0.7073 -684.4307 1412.368)" class="st12" width="3.8" height="25.6"/>
			
				<rect x="1324.8" y="1520" transform="matrix(-0.7071 -0.7071 0.7071 -0.7071 1180.9363 3554.7451)" class="st12" width="3.8" height="25.6"/>
		</g>
		<g>
			<rect x="1317.5" y="1560.7" class="st12" width="54.9" height="3.8"/>
			
				<rect x="1361.4" y="1558.3" transform="matrix(0.7071 -0.7071 0.7071 0.7071 -711.6663 1424.1522)" class="st12" width="3.8" height="25.6"/>
			
				<rect x="1324.8" y="1558.3" transform="matrix(-0.7071 -0.7071 0.7071 -0.7071 1153.876 3620.1467)" class="st12" width="3.8" height="25.6"/>
		</g>
	</g>
	<g>
		<g>
			<rect x="1216.1" y="1404" class="st12" width="3.8" height="195.2"/>
			<rect x="1161.2" y="1404" class="st12" width="3.8" height="195.2"/>
		</g>
		<g>
			<rect x="1163.1" y="1407.4" class="st12" width="54.9" height="3.8"/>
			
				<rect x="1206.9" y="1405.1" transform="matrix(0.7069 -0.7073 0.7073 0.7069 -648.5951 1270.5486)" class="st12" width="3.8" height="25.6"/>
			
				<rect x="1170.3" y="1405" transform="matrix(-0.7071 -0.7071 0.7071 -0.7071 998.5918 3249.1482)" class="st12" width="3.8" height="25.6"/>
		</g>
		<g>
			<rect x="1163.1" y="1445.7" class="st12" width="54.9" height="3.8"/>
			
				<rect x="1207" y="1443.3" transform="matrix(0.7071 -0.7071 0.7071 0.7071 -675.57 1281.3134)" class="st12" width="3.8" height="25.6"/>
			
				<rect x="1170.3" y="1443.3" transform="matrix(-0.7073 -0.7069 0.7069 -0.7073 971.9835 3314.7297)" class="st12" width="3.8" height="25.6"/>
		</g>
		<g>
			<rect x="1163.1" y="1484.1" class="st12" width="54.9" height="3.8"/>
			
				<rect x="1207" y="1481.7" transform="matrix(0.7073 -0.7069 0.7069 0.7073 -702.5941 1292.0262)" class="st12" width="3.8" height="25.6"/>
			
				<rect x="1170.3" y="1481.6" transform="matrix(-0.7073 -0.7069 0.7069 -0.7073 944.935 3380.1423)" class="st12" width="3.8" height="25.6"/>
		</g>
		<g>
			<rect x="1163.1" y="1522.4" class="st12" width="54.9" height="3.8"/>
			
				<rect x="1207" y="1519.9" transform="matrix(0.7073 -0.7069 0.7069 0.7073 -729.6613 1303.1918)" class="st12" width="3.8" height="25.6"/>
			
				<rect x="1170.3" y="1519.9" transform="matrix(-0.7069 -0.7073 0.7073 -0.7069 916.7825 3445.2473)" class="st12" width="3.8" height="25.6"/>
		</g>
		<g>
			<rect x="1163.1" y="1560.7" class="st12" width="54.9" height="3.8"/>
			
				<rect x="1207" y="1558.3" transform="matrix(0.7071 -0.7071 0.7071 0.7071 -756.8574 1314.9655)" class="st12" width="3.8" height="25.6"/>
			
				<rect x="1170.3" y="1558.3" transform="matrix(-0.7071 -0.7071 0.7071 -0.7071 890.1898 3510.843)" class="st12" width="3.8" height="25.6"/>
		</g>
	</g>
</g>
<g>
	<g>
		<g>
			<polyline class="st15" points="1911,882.5 1741,780.2 1482.5,900.8 			"/>
			<g>
				<polyline class="st16" points="1459.4,926.2 1715.4,926.2 1715.4,900.9 1459.4,900.9 				"/>
				<line class="st16" x1="1680.5" y1="927" x2="1680.5" y2="901.6"/>
				<line class="st16" x1="1645.6" y1="901.6" x2="1645.6" y2="927"/>
				<line class="st16" x1="1610.7" y1="901.6" x2="1610.7" y2="927"/>
				<line class="st16" x1="1575.8" y1="901.6" x2="1575.8" y2="927"/>
				<line class="st16" x1="1541" y1="901.6" x2="1541" y2="927"/>
				<line class="st16" x1="1506.1" y1="901.6" x2="1506.1" y2="927"/>
				<line class="st16" x1="1715.4" y1="900.9" x2="1680.5" y2="926.2"/>
				<line class="st16" x1="1680.5" y1="900.9" x2="1645.6" y2="926.2"/>
				<line class="st16" x1="1645.6" y1="900.9" x2="1610.7" y2="926.2"/>
				<line class="st16" x1="1610.7" y1="900.9" x2="1575.8" y2="926.2"/>
				<line class="st16" x1="1575.8" y1="900.9" x2="1541" y2="926.2"/>
				<line class="st16" x1="1541" y1="900.9" x2="1506.1" y2="926.2"/>
				<line class="st16" x1="1505.5" y1="900.8" x2="1470.6" y2="926.1"/>
			</g>
			<g>
				<line class="st16" x1="1741.6" y1="849.9" x2="1767.1" y2="849.9"/>
				<line class="st16" x1="1741.6" y1="884.8" x2="1767.1" y2="884.8"/>
				<line class="st16" x1="1741" y1="849.9" x2="1766.3" y2="884.8"/>
				<line class="st16" x1="1741" y1="884.8" x2="1766.3" y2="919.7"/>
				<polyline class="st16" points="1766.3,815.1 1741,815.1 1741,1001.2 1766.3,1001.2 1766.3,815.1 1741,780.2 1741,815.1 
					1766.3,849.9 				"/>
			</g>
			<line class="st16" x1="1741.6" y1="919.7" x2="1767.1" y2="919.7"/>
			<line class="st16" x1="1741.6" y1="954.6" x2="1767.1" y2="954.6"/>
			<line class="st16" x1="1741" y1="919.7" x2="1766.3" y2="954.6"/>
			<line class="st16" x1="1740.9" y1="955.2" x2="1766.2" y2="990.1"/>
			<g>
				<rect x="1689.9" y="900.9" class="st16" width="256" height="25.3"/>
				<line class="st16" x1="1911" y1="927" x2="1911" y2="901.6"/>
				<line class="st16" x1="1876.1" y1="901.6" x2="1876.1" y2="927"/>
				<line class="st16" x1="1841.2" y1="901.6" x2="1841.2" y2="927"/>
				<line class="st16" x1="1806.3" y1="901.6" x2="1806.3" y2="927"/>
				<line class="st16" x1="1771.4" y1="901.6" x2="1771.4" y2="927"/>
				<line class="st16" x1="1736.5" y1="901.6" x2="1736.5" y2="927"/>
				<line class="st16" x1="1945.9" y1="900.9" x2="1911" y2="926.2"/>
				<line class="st16" x1="1911" y1="900.9" x2="1876.1" y2="926.2"/>
				<line class="st16" x1="1876.1" y1="900.9" x2="1841.2" y2="926.2"/>
				<line class="st16" x1="1841.2" y1="900.9" x2="1806.3" y2="926.2"/>
				<line class="st16" x1="1806.3" y1="900.9" x2="1771.4" y2="926.2"/>
				<line class="st16" x1="1771.4" y1="900.9" x2="1736.5" y2="926.2"/>
				<line class="st16" x1="1735.9" y1="900.8" x2="1701.1" y2="926.1"/>
			</g>
			<rect x="1677.3" y="900.8" class="st17" width="116" height="43.6"/>
			<rect x="1715.3" y="958.1" class="st14" width="66.2" height="43.6"/>
			<rect x="1727.2" y="1018.8" class="st18" width="42.4" height="563.2"/>
			<rect x="1717" y="1561.5" class="st19" width="62.9" height="37"/>
			<g>
				<polygon class="st17" points="1703.5,1569.6 1707.5,1569.6 1703.5,1573.6 				"/>
				<polygon class="st17" points="1793.3,1599.3 1788.9,1599.3 1793.3,1594.9 				"/>
				<polygon class="st20" points="1793.3,1594.9 1788.9,1599.3 1773,1599.3 1793.3,1579 				"/>
				<polygon class="st20" points="1703.5,1573.6 1707.5,1569.6 1723.4,1569.6 1703.5,1589.4 				"/>
				<polygon class="st17" points="1793.3,1569.6 1793.3,1579 1773,1599.3 1757.1,1599.3 1786.9,1569.6 				"/>
				<polygon class="st17" points="1703.5,1589.4 1723.4,1569.6 1739.2,1569.6 1709.5,1599.3 1703.5,1599.3 				"/>
				<polygon class="st17" points="1771,1569.6 1741.3,1599.3 1725.4,1599.3 1755.1,1569.6 				"/>
				<polygon class="st20" points="1786.9,1569.6 1757.1,1599.3 1741.3,1599.3 1771,1569.6 				"/>
				<polygon class="st20" points="1755.1,1569.6 1725.4,1599.3 1709.5,1599.3 1739.2,1569.6 				"/>
			</g>
			<line class="st18" x1="1728.3" y1="1018.8" x2="1771" y2="1018.8"/>
			<line class="st18" x1="1771" y1="1077.3" x2="1728.3" y2="1077.3"/>
			<line class="st18" x1="1728.3" y1="1135.8" x2="1771" y2="1135.8"/>
			<line class="st18" x1="1728.3" y1="1194.3" x2="1771" y2="1194.3"/>
			<line class="st18" x1="1728.3" y1="1252.7" x2="1771" y2="1252.7"/>
			<line class="st18" x1="1728.3" y1="1311.2" x2="1771" y2="1311.2"/>
			<line class="st18" x1="1728.3" y1="1369.7" x2="1771" y2="1369.7"/>
			<line class="st18" x1="1728.3" y1="1428.2" x2="1771" y2="1428.2"/>
			<line class="st18" x1="1727.2" y1="1018.8" x2="1769.6" y2="1077.3"/>
			<line class="st18" x1="1727.2" y1="1077.3" x2="1769.6" y2="1135.8"/>
			<line class="st18" x1="1727.2" y1="1135.8" x2="1769.6" y2="1194.3"/>
			<line class="st18" x1="1727.2" y1="1194.3" x2="1769.6" y2="1252.7"/>
			<line class="st18" x1="1727.2" y1="1252.7" x2="1769.6" y2="1311.2"/>
			<line class="st18" x1="1727.2" y1="1311.2" x2="1769.6" y2="1369.7"/>
			<line class="st18" x1="1727" y1="1370.7" x2="1769.4" y2="1429.2"/>
			<rect x="1717" y="1000.2" class="st20" width="62.9" height="18.5"/>
			<rect x="1705.7" y="992.4" class="st19" width="85.4" height="18.5"/>
			<rect x="1668.1" y="941.4" class="st19" width="133.6" height="6.8"/>
			<polygon class="st20" points="1715.3,958.1 1673.3,948.3 1797.6,948.3 1781.5,958.1 			"/>
			<rect x="1677.3" y="905.3" class="st20" width="62.9" height="26.3"/>
			<rect x="1914.7" y="882.7" class="st20" width="55.2" height="87.1"/>
			<rect x="1914.7" y="882.7" class="st21" width="13.7" height="87.1"/>
			<rect x="1903.2" y="873.3" class="st19" width="85.4" height="18.5"/>
		</g>
		<g>
			<rect x="1226.3" y="900.9" class="st16" width="244.8" height="25.3"/>
			<line class="st16" x1="1401.4" y1="901.6" x2="1401.4" y2="927"/>
			<line class="st16" x1="1366.5" y1="901.6" x2="1366.5" y2="927"/>
			<line class="st16" x1="1331.6" y1="901.6" x2="1331.6" y2="927"/>
			<line class="st16" x1="1296.7" y1="901.6" x2="1296.7" y2="927"/>
			<line class="st16" x1="1261.8" y1="901.6" x2="1261.8" y2="927"/>
			<line class="st16" x1="1436.3" y1="900.9" x2="1401.4" y2="926.2"/>
			<line class="st16" x1="1401.4" y1="900.9" x2="1366.5" y2="926.2"/>
			<line class="st16" x1="1366.5" y1="900.9" x2="1331.6" y2="926.2"/>
			<line class="st16" x1="1331.6" y1="900.9" x2="1296.7" y2="926.2"/>
			<line class="st16" x1="1296.7" y1="900.9" x2="1261.8" y2="926.2"/>
			<line class="st16" x1="1261.2" y1="900.8" x2="1226.3" y2="926.1"/>
			<line class="st16" x1="1436.3" y1="901.9" x2="1436.3" y2="927.4"/>
			<line class="st16" x1="1471.1" y1="901.2" x2="1436.3" y2="926.5"/>
		</g>
		<line class="st16" x1="1156.5" y1="901.6" x2="1156.5" y2="927"/>
		<line class="st16" x1="1121.6" y1="901.6" x2="1121.6" y2="927"/>
		<line class="st16" x1="1191.4" y1="900.9" x2="1156.5" y2="926.2"/>
		<line class="st16" x1="1156.5" y1="900.9" x2="1121.6" y2="926.2"/>
		<line class="st16" x1="1191.4" y1="901.9" x2="1191.4" y2="927.4"/>
		<line class="st16" x1="1226.3" y1="901.2" x2="1191.4" y2="926.5"/>
		<polyline class="st16" points="1121.7,900.9 1121.7,926.2 1331.6,926.2 1331.6,900.9 1121.7,900.9 1086.8,926.2 1121.7,926.2 
			1156.6,900.9 		"/>
	</g>
	<line class="st18" x1="1727.7" y1="1547.2" x2="1741.3" y2="1565.9"/>
	<line class="st18" x1="1729" y1="1487.7" x2="1771.7" y2="1487.7"/>
	<line class="st18" x1="1729" y1="1546.2" x2="1771.7" y2="1546.2"/>
	<line class="st18" x1="1727.9" y1="1429.2" x2="1770.3" y2="1487.7"/>
	<line class="st18" x1="1727.9" y1="1487.7" x2="1770.3" y2="1546.2"/>
	<g>
		<g>
			<rect x="1088.1" y="915.9" class="st20" width="62.9" height="26.3"/>
			<rect x="1088.1" y="924.1" class="st22" width="49.6" height="14.4"/>
		</g>
		<rect x="1110.9" y="958.3" class="st20" width="17.3" height="6"/>
		<rect x="1116.6" y="962.2" class="st20" width="6" height="10.4"/>
		<path class="st20" d="M1119.6,968.6L1119.6,968.6v4l0,0c-2.1,0-3.8,1.7-3.8,3.8s1.7,3.8,3.8,3.8c1.1,0,2-0.4,2.7-1.1l2.8,2.8
			c-1.4,1.4-3.4,2.3-5.6,2.3c-4.3,0-7.9-3.5-7.9-7.8C1111.7,972.1,1115.2,968.6,1119.6,968.6z"/>
		<line class="st23" x1="1120.1" y1="940.8" x2="1120.1" y2="961.3"/>
		<line class="st23" x1="1119.6" y1="978.9" x2="1119.6" y2="999.4"/>
		<rect x="1114.1" y="990" class="st21" width="10.9" height="23.9"/>
	</g>
</g>
<g>
	<path class="st24" d="M1734.6,1479.9c-2.8,0-5.4,0.3-8,0.9c-8,1.8-15,6.1-20,12.2h29.1h27.1C1756,1485,1745.9,1479.9,1734.6,1479.9
		z"/>
	<polygon class="st12" points="1793.9,1528.5 1827.4,1527.3 1829.9,1524.4 1846,1524.4 1850,1503.1 1709.1,1512 1742.7,1571.1 	"/>
	<polygon class="st8" points="1697.9,1531.1 1711.7,1548 1731.5,1544.9 1713.6,1540.9 1697.9,1521.2 	"/>
	<polygon class="st8" points="1632.2,1527.3 1623,1559.1 1682.9,1560.7 1695.2,1537.3 1699.4,1536.3 1700.6,1522.8 1712.9,1520.2 
		1687.4,1509.2 1650.8,1506.5 	"/>
	<polygon class="st8" points="1680.6,1546.9 1680.6,1574 1804.2,1574 1804.2,1520 	"/>
	<g>
		<path class="st25" d="M1829.9,1563.2c0-19.9-16.1-36-36-36s-36,16.1-36,36s16.1,36,36,36S1829.9,1583.1,1829.9,1563.2"/>
		<path class="st26" d="M1815.6,1563.2c0-12-9.7-21.7-21.7-21.7s-21.7,9.7-21.7,21.7s9.7,21.7,21.7,21.7
			C1805.9,1585,1815.6,1575.2,1815.6,1563.2"/>
		<path class="st27" d="M1805,1563.2c0-6.1-4.9-11.1-11.1-11.1c-6.1,0-11.1,5-11.1,11.1s4.9,11.1,11.1,11.1
			C1800,1574.3,1805,1569.4,1805,1563.2"/>
	</g>
	<g>
		<path class="st25" d="M1704.4,1563.2c0-19.9-16.1-36-36-36s-36,16.1-36,36s16.1,36,36,36S1704.4,1583.1,1704.4,1563.2"/>
		<path class="st26" d="M1690.1,1563.2c0-12-9.7-21.7-21.7-21.7s-21.7,9.7-21.7,21.7s9.7,21.7,21.7,21.7
			C1680.4,1585,1690.1,1575.2,1690.1,1563.2"/>
		<path class="st27" d="M1679.5,1563.2c0-6.1-4.9-11.1-11.1-11.1s-11.1,5-11.1,11.1s4.9,11.1,11.1,11.1
			C1674.5,1574.3,1679.5,1569.4,1679.5,1563.2"/>
	</g>
	<polygon class="st17" points="1626.2,1522.3 1621.9,1542.7 1629.1,1542.7 1641.1,1522.3 	"/>
	<polygon class="st14" points="1694.4,1500.2 1690,1516.7 1722.4,1516.7 1722.4,1500.2 	"/>
	<polygon class="st26" points="1668.6,1483 1637.6,1483 1629.5,1510.2 1678.1,1505.4 	"/>
	<polygon class="st8" points="1668.6,1483 1637.6,1483 1629.5,1510.2 1678.1,1505.4 	"/>
	
		<rect x="1728.4" y="1530.7" transform="matrix(-0.2131 -0.977 0.977 -0.2131 601.4821 3553.0559)" class="st17" width="6.3" height="7.3"/>
	
		<rect x="1747.1" y="1526.7" transform="matrix(-0.2133 -0.977 0.977 -0.2133 628.3662 3566.752)" class="st17" width="6.3" height="7.3"/>
	
		<rect x="1766.1" y="1522.7" transform="matrix(-0.2128 -0.9771 0.9771 -0.2128 654.3447 3579.8049)" class="st17" width="6.3" height="7.3"/>
	
		<rect x="1784.8" y="1518.6" transform="matrix(-0.2128 -0.9771 0.9771 -0.2128 680.9908 3593.1465)" class="st17" width="6.3" height="7.3"/>
	
		<rect x="1803.8" y="1514.8" transform="matrix(-0.2135 -0.9769 0.9769 -0.2135 709.3045 3607.8906)" class="st17" width="6.3" height="7.3"/>
	
		<rect x="1822.6" y="1510.7" transform="matrix(-0.2128 -0.9771 0.9771 -0.2128 734.6346 3620.5857)" class="st17" width="6.3" height="7.3"/>
	<polygon class="st17" points="1840.5,1508.2 1841.8,1514.3 1848.9,1512.8 1847.6,1506.6 	"/>
	<polyline class="st17" points="1872.1,1502.1 1867.8,1509.2 1860.6,1510.8 1859.3,1504.6 	"/>
	<polygon class="st17" points="1626.1,1472.5 1626.1,1477.2 1680.6,1477.2 1714.2,1536.3 1871.4,1502.1 1871.4,1493 1703.4,1493 
		1691.7,1472.5 	"/>
	<polygon class="st0" points="1666.8,1485.7 1639.3,1485.7 1634.5,1501.9 1672.2,1498.2 	"/>
	<polygon class="st28" points="1634.5,1501.9 1631.3,1512.8 1676.3,1508 1672.2,1498.2 	"/>
	<rect x="1650.8" y="1483.7" class="st8" width="2.6" height="25"/>
	<polygon class="st17" points="1678.1,1505.4 1629.5,1510.2 1626.9,1519 1622.8,1519 1621.2,1520.5 1621.2,1524.9 1685.3,1524.9 	
		"/>
	<rect x="1706.5" y="1548.5" class="st17" width="48.9" height="37.7"/>
	<rect x="1621.9" y="1542.7" class="st17" width="7.3" height="34.5"/>
	<rect x="1712.8" y="1554.5" class="st29" width="5.9" height="25.8"/>
	<rect x="1723" y="1554.5" class="st29" width="5.9" height="25.8"/>
	<rect x="1733.2" y="1554.5" class="st29" width="5.9" height="25.8"/>
	<rect x="1743.4" y="1554.5" class="st29" width="5.9" height="25.8"/>
	<polygon class="st29" points="1708,1501.2 1721.6,1525 1830.8,1501.2 	"/>
	<rect x="1614.7" y="1494.9" class="st30" width="1.1" height="28.7"/>
	<rect x="1628" y="1494.9" class="st30" width="1.1" height="28.7"/>
	<rect x="1642.4" y="1494.9" class="st30" width="1.1" height="28.7"/>
	<rect x="1642.4" y="1494.9" class="st30" width="1.1" height="28.7"/>
	<rect x="1655.7" y="1494.9" class="st30" width="1.1" height="28.7"/>
	<rect x="1670" y="1494.9" class="st30" width="1.1" height="28.7"/>
	<rect x="1614.7" y="1494.3" class="st30" width="56.4" height="1.1"/>
	<rect x="1614.7" y="1508.7" class="st30" width="56.4" height="1.1"/>
	<rect x="1614.7" y="1524.4" class="st30" width="6.5" height="0.5"/>
	<rect x="1614.7" y="1523.6" class="st30" width="56.4" height="1.3"/>
	<polygon class="st17" points="1668.6,1483 1667.7,1481 1638.2,1481 1637.6,1483 	"/>
	<path class="st31" d="M1750.4,1493h46.9c5.1-6,12.1-10.4,20.1-12.2c-9.7-9.8-23.1-15.9-38-15.9c-17.6,0-33.3,8.5-43,21.7
		C1742,1486.7,1747,1489.1,1750.4,1493z"/>
	<path class="st24" d="M1849.2,1493c-6.7-8-16.8-13.1-28.1-13.1c-2.8,0-5.4,0.3-8,0.9c3.5,3.6,6.6,7.7,9,12.2L1849.2,1493
		L1849.2,1493z"/>
	<path class="st24" d="M1793,1493h29.1c-2.4-4.5-5.5-8.6-9-12.2C1805.1,1482.6,1798.1,1487,1793,1493z"/>
	<path class="st32" d="M1736.4,1486.7c-0.1,0-0.2,0-0.2,0c-5.7,0-10.7,2.4-14.2,6.3h10.5C1733.6,1490.8,1734.9,1488.7,1736.4,1486.7
		z"/>
	<path class="st32" d="M1750.4,1493c-3.5-3.8-8.4-6.3-14-6.3c-1.5,2-2.8,4.1-4,6.3H1750.4z"/>
</g>
<g>
	<rect x="1825.5" y="1556.9" class="st30" width="4.1" height="42.5"/>
	<rect x="1866.4" y="1556.9" class="st30" width="4.1" height="42.5"/>
	<polygon class="st33" points="1878.9,1561.5 1876.2,1561.5 1878.9,1564.3 	"/>
	<polygon class="st33" points="1817.1,1582 1820.1,1582 1817.1,1578.9 	"/>
	<polygon class="st33" points="1817.1,1561.5 1817.1,1568 1831.1,1582 1842,1582 1821.5,1561.5 	"/>
	<polygon class="st33" points="1878.9,1575.2 1865.2,1561.5 1854.3,1561.5 1874.8,1582 1878.9,1582 	"/>
	<polygon class="st33" points="1832.5,1561.5 1852.9,1582 1863.9,1582 1843.4,1561.5 	"/>
	<polygon class="st34" points="1817.1,1578.9 1820.1,1582 1831.1,1582 1817.1,1568 	"/>
	<polygon class="st34" points="1821.5,1561.5 1842,1582 1852.9,1582 1832.5,1561.5 	"/>
	<polygon class="st34" points="1843.4,1561.5 1863.9,1582 1874.8,1582 1854.3,1561.5 	"/>
	<polygon class="st34" points="1878.9,1564.3 1876.2,1561.5 1865.2,1561.5 1878.9,1575.2 	"/>
	<rect x="1826.9" y="1590.3" class="st30" width="42.5" height="4.1"/>
</g>
<g>
	<rect x="66" y="1556.7" class="st30" width="4.1" height="42.5"/>
	<rect x="107" y="1556.7" class="st30" width="4.1" height="42.5"/>
	<polygon class="st33" points="119.5,1561.3 116.7,1561.3 119.5,1564.1 	"/>
	<polygon class="st33" points="57.6,1581.8 60.7,1581.8 57.6,1578.8 	"/>
	<polygon class="st33" points="57.6,1561.3 57.6,1567.8 71.6,1581.8 82.5,1581.8 62.1,1561.3 	"/>
	<polygon class="st33" points="119.5,1575 105.8,1561.3 94.9,1561.3 115.3,1581.8 119.5,1581.8 	"/>
	<polygon class="st33" points="73,1561.3 93.5,1581.8 104.4,1581.8 83.9,1561.3 	"/>
	<polygon class="st34" points="57.6,1578.8 60.7,1581.8 71.6,1581.8 57.6,1567.8 	"/>
	<polygon class="st34" points="62.1,1561.3 82.5,1581.8 93.5,1581.8 73,1561.3 	"/>
	<polygon class="st34" points="83.9,1561.3 104.4,1581.8 115.3,1581.8 94.9,1561.3 	"/>
	<polygon class="st34" points="119.5,1564.1 116.7,1561.3 105.8,1561.3 119.5,1575 	"/>
	<rect x="67.5" y="1590.1" class="st30" width="42.5" height="4.1"/>
</g>
<g>
	<polygon class="st35" points="1013.9,1482.7 1038.2,1477.1 1041.6,1480.6 1029.8,1490.1 	"/>
	<path class="st36" d="M979.1,1472.5h22.3l5.2-31.5c0,0-19.5-15.9-44.3,2.7L979.1,1472.5z"/>
	<rect x="1040.3" y="1500.7" class="st37" width="1.1" height="3.8"/>
	<polygon class="st38" points="1039.2,1503.8 1042.5,1503.8 1042.5,1521.7 1039.2,1512.8 	"/>
	<polygon class="st17" points="1041.6,1533 1015.6,1494.3 993.2,1480.6 996.9,1475.8 1030.2,1489.3 1046.1,1529.4 1041.5,1534.3 	
		"/>
	<path class="st29" d="M1029.2,1552.2l3.9-5.9l17.6,17.7v7.1h5.9v-3.3l8.1,0.3v14.7h-12l-6.6-5.6
		C1046,1577.3,1049.5,1561,1029.2,1552.2z"/>
	<polygon class="st39" points="1009.3,1438.4 1007.3,1474.1 977.9,1474.1 954.1,1435.3 955.2,1435.3 957.7,1438.4 1000.7,1440.8 	
		"/>
	<polygon class="st29" points="1173,1573.8 1145.7,1573.8 1097.2,1579 1084.6,1579 1084.6,1540.5 1147.1,1540.5 1172.7,1571.2 	"/>
	<polygon class="st40" points="1173.8,1555.1 1166.5,1555.1 1156.5,1521.8 1165.3,1521.8 1173.8,1525.7 	"/>
	<polygon class="st41" points="1161.9,1555.1 1176.7,1555.1 1176.7,1571.2 1172.7,1571.2 1161.9,1571.2 	"/>
	<path class="st42" d="M1091.7,1494.4L1091.7,1494.4c-2.1,0-3.9-1.7-3.9-3.9v-5c0-2.1,1.7-3.9,3.9-3.9c2.1,0,3.9,1.7,3.9,3.9v5
		C1095.5,1492.6,1093.8,1494.4,1091.7,1494.4"/>
	<polygon class="st12" points="1014.3,1499.7 1023.5,1513.9 1025,1513.1 1015.5,1499.1 	"/>
	<rect x="1039.6" y="1480.6" class="st12" width="2.4" height="20.1"/>
	<path class="st37" d="M1033.5,1534.1l-11.3-16.4c-1.2-1.8-0.8-4.3,1-5.5s4.3-0.8,5.5,1l11.3,16.4c1.2,1.8,0.8,4.3-1,5.5
		C1037.3,1536.4,1034.8,1535.9,1033.5,1534.1"/>
	<polygon class="st17" points="1033.1,1546.3 1026.7,1544.2 1026.7,1539 1031.9,1539 1035.1,1541.8 1056.9,1561.1 1056.6,1571.2 
		1050.7,1571.2 1050.7,1564 	"/>
	<path class="st43" d="M1107.5,1576.3c0,0.1,0,0.2,0,0.4v-0.1C1107.5,1576.4,1107.5,1576.4,1107.5,1576.3"/>
	<path class="st43" d="M1100.6,1576.5c0,0.3,0,0.5,0.1,0.8c0-0.4,0-0.8-0.1-1.2C1100.6,1576.3,1100.6,1576.4,1100.6,1576.5"/>
	<g>
		<path class="st25" d="M1047.3,1574.8c0-13.5-10.9-24.4-24.4-24.4s-24.4,10.9-24.4,24.4s10.9,24.4,24.4,24.4
			C1036.3,1599.2,1047.3,1588.3,1047.3,1574.8"/>
		<path class="st26" d="M1037.6,1574.8c0-8.2-6.6-14.8-14.8-14.8s-14.8,6.6-14.8,14.8s6.6,14.8,14.8,14.8
			C1031,1589.5,1037.6,1582.9,1037.6,1574.8"/>
		<path class="st27" d="M1030.3,1574.8c0-4.1-3.4-7.5-7.5-7.5s-7.5,3.4-7.5,7.5c0,4.2,3.4,7.5,7.5,7.5S1030.3,1578.9,1030.3,1574.8"
			/>
	</g>
	<g>
		<path class="st25" d="M1145.7,1574.8c0-13.5-10.9-24.4-24.4-24.4s-24.4,10.9-24.4,24.4s10.9,24.4,24.4,24.4
			C1134.8,1599.2,1145.7,1588.3,1145.7,1574.8"/>
		<path class="st26" d="M1136.1,1574.8c0-8.2-6.6-14.8-14.8-14.8s-14.8,6.6-14.8,14.8s6.6,14.8,14.8,14.8
			S1136.1,1582.9,1136.1,1574.8"/>
		<path class="st27" d="M1128.8,1574.8c0-4.1-3.4-7.5-7.5-7.5c-4.2,0-7.5,3.4-7.5,7.5c0,4.2,3.4,7.5,7.5,7.5
			S1128.8,1578.9,1128.8,1574.8"/>
	</g>
	<rect x="1064.7" y="1562.4" class="st44" width="13" height="4.5"/>
	<rect x="1064.7" y="1574.5" class="st44" width="13" height="4.5"/>
	<polygon class="st19" points="1038.4,1538.2 1035.1,1541.8 1056.9,1561.1 1056.6,1567.9 1059.4,1567.9 1059.4,1561 	"/>
	<polygon class="st35" points="1038.4,1538.2 1039.2,1535.3 1045.3,1528.6 1049.7,1528.6 1049.7,1544.7 1064.7,1560.3 
		1064.7,1568.2 1059.4,1567.9 1059.4,1561 	"/>
	<path class="st45" d="M1040.8,1531.8c0-2.2-1.8-4-4-4s-4,1.8-4,4s1.8,4,4,4S1040.8,1534,1040.8,1531.8"/>
	<path class="st17" d="M1038.9,1531.8c0-1.1-0.9-2.1-2.1-2.1c-1.1,0-2.1,0.9-2.1,2.1c0,1.1,0.9,2.1,2.1,2.1
		C1037.9,1533.9,1038.9,1533,1038.9,1531.8"/>
	<path class="st46" d="M1018.7,1495.2c0-2.7-2.2-4.8-4.8-4.8c-2.7,0-4.8,2.2-4.8,4.8c0,2.7,2.2,4.8,4.8,4.8
		C1016.6,1500.1,1018.7,1497.9,1018.7,1495.2"/>
	<path class="st17" d="M1016.4,1495.2c0-1.4-1.1-2.5-2.5-2.5s-2.5,1.1-2.5,2.5s1.1,2.5,2.5,2.5
		C1015.3,1497.7,1016.4,1496.6,1016.4,1495.2"/>
	<path class="st46" d="M1046.4,1476.6c0-2.7-2.2-4.8-4.8-4.8c-2.7,0-4.8,2.2-4.8,4.8c0,2.7,2.2,4.8,4.8,4.8
		C1044.3,1481.4,1046.4,1479.3,1046.4,1476.6"/>
	<path class="st17" d="M1044.1,1476.6c0-1.4-1.1-2.5-2.5-2.5s-2.5,1.1-2.5,2.5s1.1,2.5,2.5,2.5S1044.1,1478,1044.1,1476.6"/>
	<rect x="1087.8" y="1492.1" class="st47" width="7.7" height="2.9"/>
	<rect x="1087.8" y="1490.4" class="st48" width="7.7" height="1.7"/>
	<rect x="1102.2" y="1516.1" class="st49" width="38.9" height="2.9"/>
	<rect x="1124.3" y="1493.9" class="st41" width="6.5" height="22.2"/>
	<polygon class="st41" points="1133.2,1488.9 1133.2,1497.3 1124.3,1497.3 1124.3,1493.9 	"/>
	<path class="st46" d="M997.6,1475.3c0-3-2.4-5.3-5.3-5.3c-2.9,0-5.3,2.4-5.3,5.3c0,3,2.4,5.3,5.3,5.3
		C995.2,1480.6,997.6,1478.3,997.6,1475.3"/>
	<path class="st17" d="M995,1475.3c0-1.5-1.2-2.8-2.8-2.8c-1.5,0-2.8,1.2-2.8,2.8c0,1.5,1.2,2.8,2.8,2.8S995,1476.8,995,1475.3"/>
	<path class="st25" d="M1109.4,1543.4c1.5-0.6,3.1-1.1,4.7-1.4C1112.4,1542.3,1110.9,1542.8,1109.4,1543.4z"/>
	<path class="st17" d="M1153.6,1519h-51.4l-35.6,25.9v4.2h10.8v29.9h10.6c0,0,0-3,0-4.5c0-1.1,0.1-2.2,0.2-3.3
		c1.3-12.8,9.7-23.4,21.3-27.8c1.4-0.6,3-1.1,4.7-1.4c1.9-0.4,4-0.6,6.2-0.6c2.9,0,5.5,0.2,7.9,0.5c9.1,1.9,16.8,7.6,21.5,15.3
		c0.9,1.4,1.7,3,2.3,4.5v1.4h0.6l11.7,0.1v-6h2.8v-31.4C1166,1525.1,1153.6,1519,1153.6,1519z"/>
	<rect x="1118.4" y="1525.9" class="st41" width="35.3" height="2.2"/>
	<rect x="1118.4" y="1528.9" class="st41" width="35.3" height="2.2"/>
	<rect x="1118.4" y="1532" class="st41" width="35.3" height="2.2"/>
	<polygon class="st0" points="1061.1,1544.5 1057,1526.7 1064.9,1499 1099.9,1499 1103.9,1538.6 1098.3,1544.5 	"/>
	<g>
		<path class="st8" d="M1098.9,1500.1l3.9,38.1l-5,5.2H1062l-3.8-16.7l7.6-26.6H1098.9 M1100.9,1497.9h-2h-33.1h-1.7l-0.5,1.6
			l-7.6,26.6l-0.2,0.5l0.1,0.6l3.8,16.7l0.4,1.7h1.8h35.8h0.9l0.7-0.7l5-5.2l0.7-0.7l-0.1-1l-3.9-38.1L1100.9,1497.9L1100.9,1497.9z
			"/>
	</g>
	<polygon class="st28" points="1059.6,1533.1 1101.5,1525.9 1102.8,1538.2 1097.8,1543.4 1062,1543.4 	"/>
	<rect x="1063" y="1495" class="st17" width="39.8" height="3.5"/>
	<rect x="1063.9" y="1545.6" class="st0" width="27.7" height="1.4"/>
	<rect x="1068.3" y="1551.7" class="st0" width="18.8" height="1.4"/>
	<rect x="1068.3" y="1557.8" class="st0" width="18.8" height="1.4"/>
	<rect x="1068.3" y="1564" class="st0" width="18.8" height="1.4"/>
	<rect x="1068.3" y="1570.1" class="st0" width="18.8" height="1.4"/>
	<rect x="1068.3" y="1576.2" class="st0" width="18.8" height="1.4"/>
	<rect x="1068.3" y="1546.3" class="st0" width="1.4" height="30"/>
	<rect x="1085.7" y="1546.3" class="st0" width="1.4" height="30"/>
	<rect x="1136" y="1535.1" class="st41" width="17.6" height="2.2"/>
</g>
<g>
	<path class="st50" d="M762,1534.8c19.8,0,36.8,12.1,44,29.4h61.9c-43.8-29-96.3-45.8-152.7-45.8c-5,0-9.9,0.1-14.9,0.4
		c15.8,4.6,30.8,11.1,44.8,19.2C750.3,1535.9,756,1534.8,762,1534.8z"/>
	<path class="st51" d="M700.3,1518.8c-18.6-5.5-38.4-8.5-58.8-8.5c-53.7,0-102.7,20.4-139.6,53.9h60.6
		C602.4,1537.8,649.5,1521.4,700.3,1518.8z"/>
	<path class="st51" d="M717.9,1564.2c5-12.1,14.9-21.6,27.1-26.3c-14-8.1-29-14.5-44.8-19.2c-50.8,2.7-97.9,19-137.8,45.4
		L717.9,1564.2L717.9,1564.2z"/>
	<path class="st32" d="M806,1564.2c-7.2-17.2-24.2-29.4-44-29.4c-6,0-11.7,1.1-16.9,3.1c13,7.5,25.1,16.3,36.1,26.3L806,1564.2
		L806,1564.2z"/>
	<path class="st32" d="M745.1,1537.9c-12.3,4.7-22.1,14.2-27.1,26.3h63.2C770.1,1554.2,758,1545.4,745.1,1537.9z"/>
</g>
<g>
	<polygon class="st17" points="339.1,1541 387.6,1477.8 415.1,1465.6 519.4,1467.6 519.4,1475.7 418.2,1486.9 405.6,1493.1 
		350.1,1542.9 	"/>
	<g>
		
			<rect x="425.6" y="1458" transform="matrix(0.9989 -4.610339e-02 4.610339e-02 0.9989 -66.7841 23.3222)" class="st12" width="93.3" height="2.9"/>
	</g>
	<g>
		
			<rect x="424.6" y="1458" transform="matrix(0.9989 -4.610339e-02 4.610339e-02 0.9989 -66.8555 22.3316)" class="st38" width="52.2" height="5"/>
	</g>
	<g>
		<polygon class="st12" points="370.8,1551.3 380.5,1512.5 377.8,1511.6 368.1,1550.4 		"/>
	</g>
	<g>
		<polygon class="st38" points="371.7,1552.1 377.1,1530.4 372.4,1528.8 367,1550.5 		"/>
	</g>
	<rect x="320.1" y="1557.2" class="st27" width="18.9" height="10.7"/>
	<polygon class="st14" points="321,1573.7 339.1,1573.7 340.9,1569.4 319.2,1569.4 	"/>
	<polygon class="st8" points="362,1524.5 378.8,1541.3 378.8,1561.6 368.9,1571.5 331.2,1571.5 331.2,1561.6 331.2,1524.5 	"/>
	<g>
		
			<rect x="540.3" y="1459.2" transform="matrix(0.9847 -0.1741 0.1741 0.9847 -254.2045 117.344)" class="st12" width="2.9" height="96.7"/>
	</g>
	<g>
		<polygon class="st38" points="547.2,1553.7 552.1,1552.9 550.3,1539.5 545.3,1540.4 		"/>
	</g>
	<path class="st28" d="M402.3,1597.3H268.7c-5.9,0-10.8-4.8-10.8-10.8c0-5.9,4.8-10.8,10.8-10.8h133.6c5.9,0,10.8,4.8,10.8,10.8
		S408.2,1597.3,402.3,1597.3z"/>
	<rect x="289" y="1523.2" class="st8" width="27.5" height="10.5"/>
	<rect x="276.5" y="1568" class="st14" width="54.7" height="3.6"/>
	<polygon class="st41" points="329.1,1538.7 319.2,1528.8 286.5,1528.8 276.5,1538.7 	"/>
	<rect x="276.5" y="1538.7" class="st17" width="52.5" height="29.3"/>
	<g>
		<polygon class="st0" points="373.3,1543.3 360.4,1530.4 349.8,1530.4 349.8,1555.4 373.3,1555.4 		"/>
		<rect x="335.9" y="1530.4" class="st0" width="9.8" height="25"/>
	</g>
	<polygon class="st28" points="373.3,1549.4 335.9,1545 335.9,1555.4 373.3,1555.4 	"/>
	<circle class="st52" cx="267.4" cy="1588" r="6.4"/>
	<path class="st8" d="M255.8,1586.5c0,7.1,5.8,12.9,12.9,12.9h133.6c7.1,0,12.8-5.8,12.8-12.9c0-7.1-5.8-12.9-12.8-12.9H268.7
		C261.6,1573.7,255.8,1579.4,255.8,1586.5z M257.9,1586.5c0-5.9,4.8-10.8,10.8-10.8h133.6c5.9,0,10.8,4.8,10.8,10.8
		c0,5.9-4.8,10.8-10.8,10.8H268.7C262.7,1597.3,257.9,1592.5,257.9,1586.5z"/>
	<path class="st46" d="M514.2,1471.5c0-2.9,2.4-5.3,5.3-5.3s5.3,2.4,5.3,5.3c0,2.9-2.4,5.3-5.3,5.3S514.2,1474.4,514.2,1471.5"/>
	<path class="st17" d="M516.7,1471.5c0-1.5,1.2-2.7,2.7-2.7s2.7,1.2,2.7,2.7s-1.2,2.7-2.7,2.7S516.7,1473,516.7,1471.5"/>
	<polygon class="st19" points="511.4,1473 520.8,1448.5 532.4,1444.3 536.2,1453.7 532.4,1482.6 540.5,1549.7 532.4,1553.7 	"/>
	<polygon class="st17" points="415.1,1465.6 425.2,1456.7 433.3,1456.7 435.8,1466 	"/>
	<polygon class="st39" points="532.2,1544.7 560.7,1555.4 553.2,1579.2 526.7,1586.4 526.7,1588.5 515.7,1592.4 516,1587.7 
		519,1586.5 532,1552.3 	"/>
	<rect x="280.6" y="1545" class="st41" width="10.4" height="22.9"/>
	<rect x="295.3" y="1561.6" class="st33" width="28.4" height="6.1"/>
	<path class="st46" d="M543.7,1539.5c0-2,1.6-3.6,3.6-3.6s3.6,1.6,3.6,3.6s-1.6,3.6-3.6,3.6C545.3,1543.1,543.7,1541.5,543.7,1539.5
		"/>
	<path class="st17" d="M545.4,1539.5c0-1,0.8-1.9,1.9-1.9c1,0,1.8,0.8,1.8,1.9c0,1-0.8,1.8-1.8,1.8
		C546.2,1541.3,545.4,1540.5,545.4,1539.5"/>
	<g>
		
			<rect x="534.9" y="1459.4" transform="matrix(0.9848 -0.1736 0.1736 0.9848 -249.4696 115.8197)" class="st38" width="5" height="49.2"/>
	</g>
	<path class="st46" d="M529.2,1460.4c0-2,1.6-3.6,3.6-3.6s3.6,1.6,3.6,3.6s-1.6,3.6-3.6,3.6C530.9,1464,529.2,1462.4,529.2,1460.4"
		/>
	<path class="st17" d="M531,1460.4c0-1,0.8-1.8,1.9-1.8c1,0,1.8,0.8,1.8,1.8s-0.8,1.8-1.8,1.8C531.8,1462.2,531,1461.4,531,1460.4"
		/>
	<path class="st46" d="M513.6,1472.3c0-1,0.8-1.8,1.8-1.8s1.9,0.8,1.9,1.8s-0.8,1.8-1.9,1.8C514.4,1474.2,513.6,1473.4,513.6,1472.3
		"/>
	<path class="st46" d="M429.8,1461.6c0-2,1.6-3.6,3.6-3.6s3.6,1.6,3.6,3.6s-1.6,3.6-3.6,3.6S429.8,1463.6,429.8,1461.6"/>
	<path class="st17" d="M431.5,1461.6c0-1,0.8-1.8,1.9-1.8c1,0,1.8,0.8,1.8,1.8s-0.8,1.8-1.8,1.8
		C432.3,1463.4,431.5,1462.6,431.5,1461.6"/>
	<g>
		<circle class="st12" cx="391.6" cy="1590.1" r="6.4"/>
		<circle class="st12" cx="378.7" cy="1590.1" r="6.4"/>
		<circle class="st12" cx="365.8" cy="1590.1" r="6.4"/>
		<circle class="st12" cx="352.9" cy="1590.1" r="6.4"/>
		<circle class="st12" cx="340" cy="1590.1" r="6.4"/>
		<circle class="st12" cx="327.2" cy="1590.1" r="6.4"/>
		<circle class="st12" cx="314.3" cy="1590.1" r="6.4"/>
		<circle class="st12" cx="301.4" cy="1590.1" r="6.4"/>
		<circle class="st12" cx="288.5" cy="1590.1" r="6.4"/>
	</g>
	<polygon class="st52" points="408.4,1581.9 408.4,1588.9 403,1594.4 276.5,1594.4 276.5,1581.9 	"/>
	<g>
		<rect x="346.3" y="1570.5" class="st0" width="20.7" height="1.1"/>
		<rect x="349.6" y="1575.1" class="st0" width="14.1" height="1.1"/>
		<rect x="349.6" y="1579.7" class="st0" width="14.1" height="1.1"/>
		<rect x="349.6" y="1584.2" class="st0" width="14.1" height="1.1"/>
		<rect x="349.6" y="1588.8" class="st0" width="14.1" height="1.1"/>
		<rect x="349.6" y="1593.4" class="st0" width="14.1" height="1.1"/>
		<rect x="362.6" y="1571" class="st0" width="1.1" height="22.5"/>
		<rect x="349.6" y="1571" class="st0" width="1.1" height="22.5"/>
	</g>
	<path class="st46" d="M375.2,1512.7c0-2,1.6-3.6,3.6-3.6s3.6,1.6,3.6,3.6s-1.6,3.6-3.6,3.6S375.2,1514.7,375.2,1512.7"/>
	<path class="st17" d="M376.9,1512.7c0-1,0.8-1.8,1.9-1.8c1,0,1.8,0.8,1.8,1.8s-0.8,1.8-1.8,1.8
		C377.7,1514.6,376.9,1513.7,376.9,1512.7"/>
</g>
<g>
	<rect x="354.1" y="1556.8" class="st30" width="4.1" height="42.5"/>
	<rect x="395.1" y="1556.8" class="st30" width="4.1" height="42.5"/>
	<polygon class="st33" points="407.6,1561.5 404.9,1561.5 407.6,1564.2 	"/>
	<polygon class="st33" points="345.8,1582 348.8,1582 345.8,1578.9 	"/>
	<polygon class="st33" points="345.8,1561.5 345.8,1568 359.8,1582 370.7,1582 350.2,1561.5 	"/>
	<polygon class="st33" points="407.6,1575.2 393.9,1561.5 383,1561.5 403.5,1582 407.6,1582 	"/>
	<polygon class="st33" points="361.1,1561.5 381.6,1582 392.5,1582 372.1,1561.5 	"/>
	<polygon class="st34" points="345.8,1578.9 348.8,1582 359.8,1582 345.8,1568 	"/>
	<polygon class="st34" points="350.2,1561.5 370.7,1582 381.6,1582 361.1,1561.5 	"/>
	<polygon class="st34" points="372.1,1561.5 392.5,1582 403.5,1582 383,1561.5 	"/>
	<polygon class="st34" points="407.6,1564.2 404.9,1561.5 393.9,1561.5 407.6,1575.2 	"/>
	<rect x="355.6" y="1590.2" class="st30" width="42.5" height="4.1"/>
</g>
<g>
	<rect x="1039.7" y="1557" class="st30" width="4.1" height="42.5"/>
	<rect x="1080.7" y="1557" class="st30" width="4.1" height="42.5"/>
	<polygon class="st33" points="1093.2,1561.6 1090.4,1561.6 1093.2,1564.4 	"/>
	<polygon class="st33" points="1031.3,1582.1 1034.4,1582.1 1031.3,1579.1 	"/>
	<polygon class="st33" points="1031.3,1561.6 1031.3,1568.1 1045.3,1582.1 1056.2,1582.1 1035.8,1561.6 	"/>
	<polygon class="st33" points="1093.2,1575.3 1079.5,1561.6 1068.6,1561.6 1089,1582.1 1093.2,1582.1 	"/>
	<polygon class="st33" points="1046.7,1561.6 1067.2,1582.1 1078.1,1582.1 1057.6,1561.6 	"/>
	<polygon class="st34" points="1031.3,1579.1 1034.4,1582.1 1045.3,1582.1 1031.3,1568.1 	"/>
	<polygon class="st34" points="1035.8,1561.6 1056.2,1582.1 1067.2,1582.1 1046.7,1561.6 	"/>
	<polygon class="st34" points="1057.6,1561.6 1078.1,1582.1 1089,1582.1 1068.6,1561.6 	"/>
	<polygon class="st34" points="1093.2,1564.4 1090.4,1561.6 1079.5,1561.6 1093.2,1575.3 	"/>
	<rect x="1041.2" y="1590.4" class="st30" width="42.5" height="4.1"/>
</g>
</svg>
